<svg id="Layer_1" data-name="Layer 1" xmlns="http://www.w3.org/2000/svg" xmlns:xlink="http://www.w3.org/1999/xlink" viewBox="0 0 1200.095 800.341"><defs><style>.cls-1{fill:url(#radial-gradient);}.cls-2{fill:url(#linear-gradient);}.cls-3{fill:url(#linear-gradient-2);}.cls-4{fill:#fff;}.cls-5{fill:none;stroke:#fff;stroke-miterlimit:10;stroke-width:0.5px;}</style><radialGradient id="radial-gradient" cx="-70.909" cy="388.152" r="1289.011" gradientTransform="translate(0.095 0.169)" gradientUnits="userSpaceOnUse"><stop offset="0.052" stop-color="#fff"/><stop offset="0.057" stop-color="#fafdff"/><stop offset="0.118" stop-color="#c6eefc"/><stop offset="0.182" stop-color="#99e1f9"/><stop offset="0.247" stop-color="#72d5f6"/><stop offset="0.315" stop-color="#53ccf4"/><stop offset="0.384" stop-color="#3bc5f3"/><stop offset="0.458" stop-color="#29c0f2"/><stop offset="0.537" stop-color="#1fbdf1"/><stop offset="0.633" stop-color="#1cbcf1"/><stop offset="0.922" stop-color="#008fe1"/><stop offset="1" stop-color="#005f94"/></radialGradient><linearGradient id="linear-gradient" x1="702.725" y1="-129.394" x2="504.082" y2="895.586" gradientUnits="userSpaceOnUse"><stop offset="0.001" stop-color="#1cbcf1" stop-opacity="0"/><stop offset="0.152" stop-color="#35bbd6" stop-opacity="0.159"/><stop offset="0.739" stop-color="#95b671" stop-opacity="0.76"/><stop offset="0.999" stop-color="#bbb449"/></linearGradient><linearGradient id="linear-gradient-2" x1="440.085" y1="900.164" x2="797.468" y2="-216.576" gradientUnits="userSpaceOnUse"><stop offset="0" stop-color="#1cbcf1" stop-opacity="0"/><stop offset="0.999" stop-color="#6516a2"/></linearGradient></defs><title>banner_colour</title><g id="BG1"><rect class="cls-1" x="0.095" y="0.169" width="1200" height="800"/><rect class="cls-2" x="0.095" y="0.169" width="1200" height="800"/><rect class="cls-3" x="0.095" y="0.169" width="1200" height="800"/></g><g id="CIRCLES"><circle class="cls-4" cx="385.178" cy="396.822" r="21.5"/><circle class="cls-4" cx="274.948" cy="483.861" r="12"/><circle class="cls-4" cx="217.173" cy="621.581" r="9.913"/><circle class="cls-4" cx="124.912" cy="501.297" r="5.436"/><circle class="cls-4" cx="154.191" cy="556.078" r="5.436"/><circle class="cls-4" cx="52.384" cy="654.538" r="5.436"/><circle class="cls-4" cx="83.607" cy="690.589" r="5.436"/><circle class="cls-4" cx="247.689" cy="369.886" r="5.436"/><circle class="cls-4" cx="395.598" cy="537.301" r="5.436"/><circle class="cls-4" cx="475.203" cy="504.733" r="3.844"/><circle class="cls-4" cx="524.951" cy="407.983" r="5.436"/><circle class="cls-4" cx="437.093" cy="267.026" r="5.436"/><circle class="cls-4" cx="320.227" cy="272.461" r="5.436"/><circle class="cls-4" cx="395.718" cy="257.175" r="5.436"/><circle class="cls-4" cx="574.977" cy="603.905" r="3.844"/><circle class="cls-4" cx="665.282" cy="413.418" r="3.844"/><circle class="cls-4" cx="660.271" cy="343.675" r="3.844"/><circle class="cls-4" cx="655.579" cy="323.551" r="3.844"/><circle class="cls-4" cx="636.095" cy="271.745" r="3.844"/><circle class="cls-4" cx="507.134" cy="327.734" r="3.844"/><circle class="cls-4" cx="521.108" cy="364.089" r="3.844"/><circle class="cls-4" cx="581.745" cy="197.085" r="3.844"/><circle class="cls-4" cx="389.007" cy="116.585" r="3.844"/><circle class="cls-4" cx="255.349" cy="148.338" r="3.844"/><circle class="cls-4" cx="258.236" cy="336.639" r="3.844"/><circle class="cls-4" cx="132.207" cy="275.446" r="3.844"/><circle class="cls-4" cx="111.886" cy="332.795" r="3.844"/><circle class="cls-4" cx="375.581" cy="677.545" r="3.844"/><circle class="cls-4" cx="399.442" cy="677.545" r="3.844"/><circle class="cls-4" cx="802.488" cy="448.494" r="3.844"/><circle class="cls-4" cx="940.457" cy="476.752" r="3.844"/><circle class="cls-4" cx="941.931" cy="466.087" r="3.844"/><circle class="cls-4" cx="943.081" cy="455.422" r="3.844"/><circle class="cls-4" cx="755.896" cy="198.261" r="3.844"/><circle class="cls-4" cx="670.809" cy="88.386" r="3.844"/><circle class="cls-4" cx="602.812" cy="36.895" r="2.12"/><circle class="cls-4" cx="624.956" cy="51.28" r="2.12"/><circle class="cls-4" cx="629.196" cy="54.335" r="2.12"/><circle class="cls-4" cx="458.712" cy="126.491" r="2.12"/><circle class="cls-4" cx="434.174" cy="121.178" r="2.12"/><circle class="cls-4" cx="530.185" cy="157.29" r="2.12"/><circle class="cls-4" cx="539.551" cy="163.135" r="2.12"/><circle class="cls-4" cx="549.08" cy="169.72" r="2.12"/><circle class="cls-4" cx="345.018" cy="119.62" r="2.12"/><circle class="cls-4" cx="323.711" cy="123.115" r="2.12"/><circle class="cls-4" cx="319.619" cy="124.22" r="2.12"/><circle class="cls-4" cx="315.612" cy="125.326" r="2.12"/><circle class="cls-4" cx="311.453" cy="126.431" r="2.12"/><circle class="cls-4" cx="307.417" cy="127.536" r="2.12"/><circle class="cls-4" cx="303.359" cy="128.642" r="2.12"/><circle class="cls-4" cx="299.342" cy="129.747" r="2.12"/><circle class="cls-4" cx="295.271" cy="130.852" r="2.12"/><circle class="cls-4" cx="215.081" cy="173.947" r="2.12"/><circle class="cls-4" cx="208.95" cy="178.863" r="2.12"/><circle class="cls-4" cx="202.74" cy="183.754" r="2.12"/><circle class="cls-4" cx="195.308" cy="190.442" r="2.904"/><circle class="cls-4" cx="187.639" cy="198.117" r="2.904"/><circle class="cls-4" cx="166.688" cy="220.609" r="2.12" transform="translate(-101.071 152.166) rotate(-38.558)"/><circle class="cls-4" cx="164.177" cy="224.024" r="2.12" transform="translate(-103.747 151.346) rotate(-38.558)"/><circle class="cls-4" cx="161.732" cy="227.386" r="2.12" transform="translate(-106.376 150.555) rotate(-38.558)"/><circle class="cls-4" cx="159.169" cy="230.843" r="2.12" transform="translate(-109.089 149.711) rotate(-38.558)"/><circle class="cls-4" cx="156.701" cy="234.223" r="2.12" transform="translate(-111.734 148.91) rotate(-38.558)"/><circle class="cls-4" cx="154.218" cy="237.616" r="2.12" transform="translate(-114.391 148.102) rotate(-38.558)"/><circle class="cls-4" cx="151.765" cy="240.985" r="2.12" transform="translate(-117.025 147.307) rotate(-38.558)"/><circle class="cls-4" cx="149.271" cy="244.387" r="2.12" transform="translate(-119.689 146.494) rotate(-38.558)"/><circle class="cls-4" cx="166.688" cy="220.609" r="2.12" transform="translate(-101.071 152.166) rotate(-38.558)"/><circle class="cls-4" cx="164.177" cy="224.024" r="2.12" transform="translate(-103.747 151.346) rotate(-38.558)"/><circle class="cls-4" cx="161.732" cy="227.386" r="2.12" transform="translate(-106.376 150.555) rotate(-38.558)"/><circle class="cls-4" cx="159.169" cy="230.843" r="2.12" transform="translate(-109.089 149.711) rotate(-38.558)"/><circle class="cls-4" cx="156.701" cy="234.223" r="2.12" transform="translate(-111.734 148.91) rotate(-38.558)"/><circle class="cls-4" cx="154.218" cy="237.616" r="2.12" transform="translate(-114.391 148.102) rotate(-38.558)"/><circle class="cls-4" cx="151.765" cy="240.985" r="2.12" transform="translate(-117.025 147.307) rotate(-38.558)"/><circle class="cls-4" cx="149.271" cy="244.387" r="2.12" transform="translate(-119.689 146.494) rotate(-38.558)"/><circle class="cls-4" cx="51.875" cy="139.476" r="2.12" transform="translate(-75.532 62.913) rotate(-38.558)"/><circle class="cls-4" cx="84.708" cy="102.153" r="2.12" transform="translate(-45.11 75.241) rotate(-38.558)"/><circle class="cls-4" cx="88.208" cy="98.778" r="2.12" transform="translate(-42.243 76.686) rotate(-38.558)"/><circle class="cls-4" cx="91.833" cy="94.538" r="2.12" transform="translate(-38.809 78.021) rotate(-38.558)"/><circle class="cls-4" cx="97.083" cy="90.297" r="2.12" transform="translate(-35.021 80.369) rotate(-38.558)"/><circle class="cls-4" cx="103.208" cy="84.403" r="2.12" transform="translate(-30.012 82.902) rotate(-38.558)"/><circle class="cls-4" cx="108.958" cy="79.278" r="2.12" transform="translate(-25.564 85.369) rotate(-38.558)"/><circle class="cls-4" cx="114.083" cy="75.038" r="2.12" transform="translate(-21.803 87.639) rotate(-38.558)"/><circle class="cls-4" cx="49.364" cy="142.891" r="2.12" transform="translate(-78.208 62.092) rotate(-38.558)"/><circle class="cls-4" cx="46.919" cy="146.254" r="2.12" transform="translate(-80.837 61.301) rotate(-38.558)"/><circle class="cls-4" cx="105.827" cy="370.631" r="2.12" transform="translate(-207.851 146.94) rotate(-38.558)"/><circle class="cls-4" cx="104.978" cy="413.204" r="3.844"/><circle class="cls-4" cx="105.922" cy="428.065" r="3.844"/><circle class="cls-4" cx="108.822" cy="444.231" r="3.844"/><circle class="cls-4" cx="112.666" cy="463.694" r="3.844"/><circle class="cls-4" cx="246.097" cy="413.204" r="3.844"/><circle class="cls-4" cx="270.75" cy="652.987" r="2.12" transform="translate(-347.889 311.3) rotate(-38.558)"/><circle class="cls-4" cx="279.25" cy="657.227" r="2.12" transform="translate(-348.679 317.523) rotate(-38.558)"/><circle class="cls-4" cx="297.583" cy="663.227" r="2.12" transform="translate(-348.422 330.258) rotate(-38.558)"/><circle class="cls-4" cx="305.75" cy="666.153" r="2.12" transform="translate(-348.465 335.987) rotate(-38.558)"/><circle class="cls-4" cx="313.083" cy="668.274" r="2.12" transform="translate(-348.188 341.02) rotate(-38.558)"/><circle class="cls-4" cx="320.583" cy="670.394" r="2.12" transform="translate(-347.874 346.157) rotate(-38.558)"/><circle class="cls-4" cx="328.25" cy="671.413" r="2.12" transform="translate(-346.838 351.158) rotate(-38.558)"/><circle class="cls-4" cx="333.744" cy="672.444" r="2.12" transform="translate(-416.193 704.505) rotate(-66.039)"/><circle class="cls-4" cx="337.932" cy="673.095" r="2.12" transform="translate(-414.301 708.719) rotate(-66.039)"/><circle class="cls-4" cx="342.043" cy="673.713" r="2.12" transform="translate(-412.424 712.843) rotate(-66.039)"/><circle class="cls-4" cx="346.293" cy="674.392" r="2.12" transform="translate(-410.521 717.129) rotate(-66.039)"/><circle class="cls-4" cx="350.43" cy="675.021" r="2.12" transform="translate(-408.639 721.284) rotate(-66.039)"/><circle class="cls-4" cx="354.587" cy="675.659" r="2.12" transform="translate(-406.753 725.461) rotate(-66.039)"/><circle class="cls-4" cx="358.706" cy="676.28" r="2.12" transform="translate(-404.874 729.594) rotate(-66.039)"/><circle class="cls-4" cx="362.876" cy="676.923" r="2.12" transform="translate(-402.986 733.787) rotate(-66.039)"/><circle class="cls-4" cx="244.744" cy="395.015" r="2.12" transform="translate(-192.762 238.845) rotate(-38.558)"/><circle class="cls-4" cx="366.403" cy="536.407" r="3.844"/><circle class="cls-4" cx="351.018" cy="533.147" r="2.12" transform="translate(-255.691 335.204) rotate(-38.558)"/><circle class="cls-4" cx="423.079" cy="532.395" r="2.12" transform="translate(-239.511 379.956) rotate(-38.558)"/><circle class="cls-4" cx="434.79" cy="527.854" r="2.12" transform="translate(-234.127 386.266) rotate(-38.558)"/><circle class="cls-4" cx="492.374" cy="487.113" r="2.12" transform="translate(-196.178 413.276) rotate(-38.558)"/><circle class="cls-4" cx="501.483" cy="475.401" r="2.12" transform="translate(-186.892 416.4) rotate(-38.558)"/><circle class="cls-4" cx="508.966" cy="462.713" r="2.12" transform="translate(-177.352 418.298) rotate(-38.558)"/><circle class="cls-4" cx="334.505" cy="528.022" r="3.844"/><circle class="cls-4" cx="450.395" cy="521.063" r="3.844"/><circle class="cls-4" cx="516.928" cy="445.073" r="3.844"/><circle class="cls-4" cx="280.413" cy="303.169" r="2.12" transform="translate(-127.736 241.053) rotate(-38.558)"/><circle class="cls-4" cx="483.505" cy="297.374" r="3.844"/><circle class="cls-4" cx="462.613" cy="280.741" r="3.844"/><circle class="cls-4" cx="292.904" cy="291.983" r="3.844"/><circle class="cls-4" cx="348.254" cy="261.59" r="3.844"/><circle class="cls-4" cx="364.718" cy="258.275" r="3.844"/><circle class="cls-4" cx="271.66" cy="314.783" r="3.844"/><circle class="cls-4" cx="433.417" cy="673.533" r="2.12" transform="translate(-325.23 417.172) rotate(-38.558)"/><circle class="cls-4" cx="444.024" cy="671.592" r="2.12" transform="translate(-321.708 423.36) rotate(-38.558)"/><circle class="cls-4" cx="484.859" cy="658.987" r="2.12" transform="translate(-304.947 446.065) rotate(-38.558)"/><circle class="cls-4" cx="535.834" cy="633.285" r="2.12" transform="translate(-277.813 472.235) rotate(-38.558)"/><circle class="cls-4" cx="602.591" cy="574.248" r="2.12" transform="translate(-226.46 500.974) rotate(-38.558)"/><circle class="cls-4" cx="606.832" cy="568.592" r="2.12" transform="translate(-222.009 502.384) rotate(-38.558)"/><circle class="cls-4" cx="611.783" cy="562.405" r="2.12" transform="translate(-217.073 504.121) rotate(-38.558)"/><circle class="cls-4" cx="617.794" cy="553.566" r="2.12" transform="translate(-210.254 505.94) rotate(-38.558)"/><circle class="cls-4" cx="623.274" cy="544.727" r="2.12" transform="translate(-203.549 507.429) rotate(-38.558)"/><circle class="cls-4" cx="637.769" cy="518.034" r="2.12" transform="translate(-183.751 510.645) rotate(-38.558)"/><circle class="cls-4" cx="641.305" cy="510.528" r="2.12" transform="translate(-178.302 511.212) rotate(-38.558)"/><circle class="cls-4" cx="645.371" cy="500.721" r="2.12" transform="translate(-171.302 511.608) rotate(-38.558)"/><circle class="cls-4" cx="650.144" cy="489.234" r="2.12" transform="translate(-163.101 512.078) rotate(-38.558)"/><circle class="cls-4" cx="654.082" cy="477.293" r="3.844"/><circle class="cls-4" cx="659.042" cy="457.704" r="3.844"/><circle class="cls-4" cx="546.733" cy="626.349" r="3.844"/><circle class="cls-4" cx="628.213" cy="740.387" r="3.844"/><circle class="cls-4" cx="530.915" cy="636.705" r="3.844"/><circle class="cls-4" cx="663.066" cy="361.386" r="2.12" transform="translate(-80.595 492.259) rotate(-38.558)"/><circle class="cls-4" cx="664.474" cy="374.979" r="2.12" transform="translate(-88.761 496.1) rotate(-38.558)"/><circle class="cls-4" cx="649.931" cy="305.735" r="3.844"/><circle class="cls-4" cx="610.374" cy="230.1" r="2.12" transform="translate(-10.251 430.791) rotate(-38.558)"/><circle class="cls-4" cx="619" cy="242.225" r="2.12" transform="translate(-15.928 438.811) rotate(-38.558)"/><circle class="cls-4" cx="419.913" cy="675.385" r="3.844"/><circle class="cls-4" cx="287.968" cy="660.563" r="3.844"/><circle class="cls-4" cx="199.561" cy="774.866" r="3.844"/><circle class="cls-4" cx="176.867" cy="762.467" r="3.844"/><circle class="cls-4" cx="150.347" cy="746.253" r="3.844"/><circle class="cls-4" cx="129.43" cy="731.052" r="3.844"/><circle class="cls-4" cx="114.44" cy="719.481" r="2.12" transform="translate(-423.416 228.367) rotate(-38.558)"/><circle class="cls-4" cx="103.815" cy="709.822" r="2.12" transform="translate(-419.712 219.639) rotate(-38.558)"/><circle class="cls-4" cx="232.637" cy="788.365" r="2.12" transform="translate(-546.923 528.195) rotate(-55.094)"/><circle class="cls-4" cx="236.616" cy="789.893" r="2.12" transform="translate(-546.474 532.111) rotate(-55.094)"/><circle class="cls-4" cx="240.595" cy="791.42" r="2.12" transform="translate(-546.025 536.027) rotate(-55.094)"/><circle class="cls-4" cx="244.574" cy="792.948" r="2.12" transform="translate(-545.575 539.944) rotate(-55.094)"/><circle class="cls-4" cx="248.552" cy="794.475" r="2.12" transform="translate(-545.126 543.86) rotate(-55.094)"/><circle class="cls-4" cx="252.531" cy="796.003" r="2.12" transform="translate(-544.677 547.776) rotate(-55.094)"/><circle class="cls-4" cx="256.51" cy="797.53" r="2.12" transform="translate(-544.228 551.693) rotate(-55.094)"/><path class="cls-4" d="M262.388,800a2.12,2.12,0,1,0-3.8.009Z" transform="translate(0.095 0.169)"/><circle class="cls-4" cx="208.765" cy="779.2" r="2.12" transform="translate(-549.619 504.697) rotate(-55.094)"/><circle class="cls-4" cx="212.744" cy="780.728" r="2.12" transform="translate(-549.17 508.613) rotate(-55.094)"/><circle class="cls-4" cx="216.723" cy="782.255" r="2.12" transform="translate(-548.72 512.529) rotate(-55.094)"/><circle class="cls-4" cx="220.701" cy="783.783" r="2.12" transform="translate(-548.271 516.446) rotate(-55.094)"/><circle class="cls-4" cx="224.68" cy="785.31" r="2.12" transform="translate(-547.822 520.362) rotate(-55.094)"/><circle class="cls-4" cx="228.659" cy="786.838" r="2.12" transform="translate(-547.373 524.278) rotate(-55.094)"/><circle class="cls-4" cx="798.644" cy="472.298" r="3.844"/><circle class="cls-4" cx="805.702" cy="401.2" r="3.844"/><circle class="cls-4" cx="798.769" cy="318.762" r="3.844"/><circle class="cls-4" cx="785.508" cy="267.407" r="3.844"/><circle class="cls-4" cx="779.989" cy="252.09" r="3.844"/><circle class="cls-4" cx="755.896" cy="198.261" r="3.844"/><circle class="cls-4" cx="691.182" cy="685.795" r="2.12" transform="translate(-276.673 580.514) rotate(-38.558)"/><circle class="cls-4" cx="729.683" cy="637.78" r="2.12" transform="translate(-238.35 594.043) rotate(-38.558)"/><circle class="cls-4" cx="732.408" cy="633.912" r="2.12" transform="translate(-235.345 594.899) rotate(-38.558)"/><circle class="cls-4" cx="735.134" cy="630.044" r="2.12" transform="translate(-232.34 595.754) rotate(-38.558)"/><circle class="cls-4" cx="737.859" cy="626.177" r="2.12" transform="translate(-229.335 596.61) rotate(-38.558)"/><circle class="cls-4" cx="766.103" cy="575.643" r="2.12" transform="translate(-191.679 603.197) rotate(-38.558)"/><circle class="cls-4" cx="774.13" cy="556.616" r="2.12" transform="translate(-178.069 604.052) rotate(-38.558)"/><circle class="cls-4" cx="777.4" cy="548.142" r="2.12" transform="translate(-172.074 604.243) rotate(-38.558)"/><circle class="cls-4" cx="782.306" cy="535.804" r="2.12" transform="translate(-163.314 604.61) rotate(-38.558)"/><circle class="cls-4" cx="791.626" cy="504.415" r="2.12" transform="translate(-141.717 603.576) rotate(-38.558)"/><circle class="cls-4" cx="792.772" cy="499.315" r="2.12" transform="translate(-138.288 603.179) rotate(-38.558)"/><circle class="cls-4" cx="793.919" cy="494.215" r="2.12" transform="translate(-134.859 602.781) rotate(-38.558)"/><circle class="cls-4" cx="795.065" cy="489.115" r="2.12" transform="translate(-131.43 602.384) rotate(-38.558)"/><circle class="cls-4" cx="796.211" cy="484.014" r="2.12" transform="translate(-128.001 601.986) rotate(-38.558)"/><circle class="cls-4" cx="797.357" cy="478.914" r="2.12" transform="translate(-124.572 601.588) rotate(-38.558)"/><circle class="cls-4" cx="800.223" cy="464.481" r="2.12" transform="translate(-114.951 600.228) rotate(-38.558)"/><circle class="cls-4" cx="803.884" cy="432.43" r="2.12" transform="translate(-94.175 595.522) rotate(-38.558)"/><circle class="cls-4" cx="804.513" cy="424.062" r="2.12" transform="translate(-88.822 594.09) rotate(-38.558)"/><circle class="cls-4" cx="805.037" cy="414.663" r="2.12" transform="translate(-82.849 592.367) rotate(-38.558)"/><circle class="cls-4" cx="805.607" cy="388.414" r="2.12" transform="translate(-66.363 586.999) rotate(-38.558)"/><circle class="cls-4" cx="805.037" cy="379.473" r="2.12" transform="translate(-60.915 584.695) rotate(-38.558)"/><circle class="cls-4" cx="801.501" cy="336.316" r="2.12" transform="translate(-34.785 573.081) rotate(-38.558)"/><circle class="cls-4" cx="801.501" cy="332.289" r="2.12" transform="translate(-32.276 572.203) rotate(-38.558)"/><circle class="cls-4" cx="800.795" cy="328.263" r="2.12" transform="translate(-29.92 570.885) rotate(-38.558)"/><circle class="cls-4" cx="800.088" cy="324.236" r="2.12" transform="translate(-27.564 569.566) rotate(-38.558)"/><circle class="cls-4" cx="797.53" cy="312.629" r="2.12" transform="translate(-20.887 565.441) rotate(-38.558)"/><circle class="cls-4" cx="796.498" cy="308.585" r="2.12" transform="translate(-18.591 563.916) rotate(-38.558)"/><circle class="cls-4" cx="795.466" cy="304.54" r="2.12" transform="translate(-16.295 562.391) rotate(-38.558)"/><circle class="cls-4" cx="794.433" cy="300.496" r="2.12" transform="translate(-13.999 560.866) rotate(-38.558)"/><circle class="cls-4" cx="792.313" cy="292.586" r="2.12" transform="translate(-9.531 557.82) rotate(-38.558)"/><circle class="cls-4" cx="789.104" cy="280.436" r="2.12" transform="translate(-2.657 553.171) rotate(-38.558)"/><circle class="cls-4" cx="792.313" cy="292.586" r="2.12" transform="translate(-9.531 557.82) rotate(-38.558)"/><circle class="cls-4" cx="772.713" cy="233.897" r="2.12" transform="translate(22.777 532.807) rotate(-38.558)"/><circle class="cls-4" cx="736.072" cy="164.663" r="2.12" transform="translate(57.943 494.873) rotate(-38.558)"/><circle class="cls-4" cx="708.293" cy="127.706" r="2.12" transform="translate(74.922 469.5) rotate(-38.558)"/><circle class="cls-4" cx="30.084" cy="622.698" r="2.12" transform="translate(-381.482 154.686) rotate(-38.558)"/><circle class="cls-4" cx="794.136" cy="781.074" r="2.12" transform="translate(-313.615 665.46) rotate(-38.558)"/><circle class="cls-4" cx="797.001" cy="778.084" r="2.12" transform="translate(-311.127 666.594) rotate(-38.558)"/><circle class="cls-4" cx="904.78" cy="608.451" r="2.12" transform="translate(-181.894 696.789) rotate(-38.558)"/><circle class="cls-4" cx="906.498" cy="604.211" r="2.12" transform="translate(-178.876 696.936) rotate(-38.558)"/><circle class="cls-4" cx="908.045" cy="599.97" r="2.12" transform="translate(-175.895 696.975) rotate(-38.558)"/><circle class="cls-4" cx="926.178" cy="542.794" r="2.12" transform="translate(-136.303 695.812) rotate(-38.558)"/><circle class="cls-4" cx="927.897" cy="539.215" r="2.12" transform="translate(-133.697 696.103) rotate(-38.558)"/><circle class="cls-4" cx="928.9" cy="534.974" r="2.12" transform="translate(-130.835 695.804) rotate(-38.558)"/><circle class="cls-4" cx="930.018" cy="530.733" r="2.12" transform="translate(-127.948 695.575) rotate(-38.558)"/><circle class="cls-4" cx="935.872" cy="500.77" r="2.12" transform="translate(-107.996 692.692) rotate(-38.558)"/><circle class="cls-4" cx="936.921" cy="496.529" r="2.12" transform="translate(-105.124 692.421) rotate(-38.558)"/><circle class="cls-4" cx="937.992" cy="492.289" r="2.12" transform="translate(-102.247 692.164) rotate(-38.558)"/><circle class="cls-4" cx="945.752" cy="381.917" r="2.12" transform="translate(-31.759 672.937) rotate(-38.558)"/><circle class="cls-4" cx="945.752" cy="388.448" r="2.12" transform="translate(-35.83 674.361) rotate(-38.558)"/><circle class="cls-4" cx="945.752" cy="376.245" r="2.12" transform="translate(-28.223 671.7) rotate(-38.558)"/><circle class="cls-4" cx="945.171" cy="370.573" r="2.12" transform="translate(-24.815 670.101) rotate(-38.558)"/><circle class="cls-4" cx="935.872" cy="292.125" r="2.12" transform="translate(22.056 647.201) rotate(-38.558)"/><circle class="cls-4" cx="920.85" cy="231.352" r="2.12" transform="translate(56.661 624.588) rotate(-38.558)"/><circle class="cls-4" cx="918.73" cy="224.907" r="2.12" transform="translate(60.216 621.861) rotate(-38.558)"/><circle class="cls-4" cx="916.609" cy="217.43" r="2.12" transform="translate(64.414 618.909) rotate(-38.558)"/><circle class="cls-4" cx="916.609" cy="217.43" r="2.12" transform="translate(64.414 618.909) rotate(-38.558)"/><circle class="cls-4" cx="1049.627" cy="620.485" r="2.12" transform="translate(-157.814 789.698) rotate(-38.558)"/><circle class="cls-4" cx="1081.001" cy="478.195" r="2.12" transform="translate(-62.282 778.231) rotate(-38.558)"/><circle class="cls-4" cx="1082.291" cy="472.4" r="3.844"/><circle class="cls-4" cx="1082.819" cy="464.713" r="3.844"/><circle class="cls-4" cx="1083.748" cy="338.117" r="2.12" transform="translate(25.63 749.402) rotate(-38.558)"/></g><g id="LINES"><path class="cls-5" d="M385.083,396.653c-20.933,52.608-57.51,81.869-110.231,87.039" transform="translate(0.095 0.169)"/><path class="cls-5" d="M334.41,527.854c43.1-30.758,58.808-75.078,50.674-131.2" transform="translate(0.095 0.169)"/><path class="cls-5" d="M351.018,533.147c38.242-34.375,47.736-80.643,34.065-136.494" transform="translate(0.095 0.169)"/><path class="cls-5" d="M366.308,536.238c32.174-36.188,39.32-82.207,18.775-139.1" transform="translate(0.095 0.169)"/><path class="cls-5" d="M395.5,537.133c24.145-44.73,21.867-91.313-10.42-140" transform="translate(0.095 0.169)"/><path class="cls-5" d="M423.079,532.395c15.541-52.566,1.7-97.508-38-135.741" transform="translate(0.095 0.169)"/><path class="cls-5" d="M434.79,527.854c10.245-52.7-7.731-95.961-49.707-131.2" transform="translate(0.095 0.169)"/><path class="cls-5" d="M450.3,520.894c4.192-57.434-22.572-95.5-65.029-123.746" transform="translate(0.095 0.169)"/><path class="cls-5" d="M475.108,504.564c-8.474-54.629-40.51-88.6-89.837-107.416" transform="translate(0.095 0.169)"/><path class="cls-5" d="M492.374,487.113c-17.1-52.726-54.8-80.271-107.1-89.965" transform="translate(0.095 0.169)"/><path class="cls-5" d="M508.966,462.713c-26.216-46.333-67.621-67.905-123.695-65.565" transform="translate(0.095 0.169)"/><path class="cls-5" d="M516.833,444.9c-35.376-43.5-79.582-58.274-131.562-47.756" transform="translate(0.095 0.169)"/><path class="cls-5" d="M524.856,407.814c-45.927-33.561-92.535-33.12-139.585-10.666" transform="translate(0.095 0.169)"/><path class="cls-5" d="M521.013,363.92c-53.378-16.414-97.786-2.5-135.742,33.228" transform="translate(0.095 0.169)"/><path class="cls-5" d="M507.039,327.565q-79.2-2.619-121.768,69.583" transform="translate(0.095 0.169)"/><path class="cls-5" d="M483.41,297.205c-54.116,14.023-86,48.084-98.139,99.943" transform="translate(0.095 0.169)"/><path class="cls-5" d="M462.518,280.572c-50.787,24.282-74.269,64.46-77.247,116.576" transform="translate(0.095 0.169)"/><path class="cls-5" d="M437,266.857c-45.5,32.969-60.023,77.4-51.727,130.291" transform="translate(0.095 0.169)"/><path class="cls-5" d="M395.623,257.006c-33.714,46.637-34.443,93.358-10.353,140.142" transform="translate(0.095 0.169)"/><path class="cls-5" d="M364.623,258.106c-22.535,59.361-11.493,103.869,20.648,139.042" transform="translate(0.095 0.169)"/><path class="cls-5" d="M348.158,261.422C332.9,321.43,350.622,363.81,385.271,397.148" transform="translate(0.095 0.169)"/><path class="cls-5" d="M320.132,272.293c-4.481,57.318,21.307,96.494,65.139,124.855" transform="translate(0.095 0.169)"/><path class="cls-5" d="M292.809,291.814c6.465,49.1,35.562,85.2,92.462,105.334" transform="translate(0.095 0.169)"/><path class="cls-5" d="M280.413,303.169c16.056,50.753,49.484,83.647,104.857,93.979" transform="translate(0.095 0.169)"/><path class="cls-5" d="M271.565,314.614c19.908,49.995,58,77.273,113.706,82.534" transform="translate(0.095 0.169)"/><path class="cls-5" d="M258.141,336.47c32.049,48.385,75.747,65.009,127.13,60.678" transform="translate(0.095 0.169)"/><path class="cls-5" d="M247.594,369.718c40.987,37.568,87.5,43.123,137.676,27.43" transform="translate(0.095 0.169)"/><path class="cls-5" d="M244.744,395.015c45.721,31.538,92.777,26.362,140.527,2.134" transform="translate(0.095 0.169)"/><path class="cls-5" d="M246,413.035c49.891,23.235,95.741,15.783,138.4-15.9" transform="translate(0.095 0.169)"/><path class="cls-5" d="M507.039,327.565c30.312-45.394,73.846-62.9,128.961-55.989" transform="translate(0.095 0.169)"/><path class="cls-5" d="M619,242.225c-59.672,7.952-94.16,39-111.961,85.34" transform="translate(0.095 0.169)"/><path class="cls-5" d="M610.374,230.1c-54.092,11.257-87.989,44.338-103.335,97.465" transform="translate(0.095 0.169)"/><path class="cls-5" d="M581.65,196.916c-53.821,13.5-85.119,48.3-98.24,100.289" transform="translate(0.095 0.169)"/><path class="cls-5" d="M548.985,169.551c-51.7,16.032-77.267,56.022-86.467,111.021" transform="translate(0.095 0.169)"/><path class="cls-5" d="M539.456,162.967c-51.865,22.352-72.512,64.766-76.939,117.605" transform="translate(0.095 0.169)"/><path class="cls-5" d="M530.09,157.121c-53.4,30.519-69.183,73.822-66.34,123.451" transform="translate(0.095 0.169)"/><path class="cls-5" d="M458.617,126.323C422.611,167.55,417.179,214.741,437,266.857" transform="translate(0.095 0.169)"/><path class="cls-5" d="M434.079,121.009c-39.287,35.715-51.267,81.352-38.455,136" transform="translate(0.095 0.169)"/><path class="cls-5" d="M388.912,116.416c-26.394,48.341-22.51,95.12,6.711,140.59" transform="translate(0.095 0.169)"/><path class="cls-5" d="M344.923,119.452c-21.213,51.028-13.08,96.975,19.7,138.654" transform="translate(0.095 0.169)"/><path class="cls-5" d="M323.616,122.946c-16.718,57.227-6.955,102.682,24.542,138.475" transform="translate(0.095 0.169)"/><path class="cls-5" d="M319.524,124.052c-15.009,57.278-4.272,102.51,28.634,137.37" transform="translate(0.095 0.169)"/><path class="cls-5" d="M315.517,125.067c-13.624,56.654-2.24,101.876,32.642,136.355" transform="translate(0.095 0.169)"/><path class="cls-5" d="M311.358,126.262c-12.236,58.018,1.7,102.188,36.8,135.159" transform="translate(0.095 0.169)"/><path class="cls-5" d="M307.321,127.277c-10.909,57.513,4.616,101.229,40.837,134.144" transform="translate(0.095 0.169)"/><path class="cls-5" d="M303.264,128.473c-10.453,60.058,8.111,102.145,44.894,132.949" transform="translate(0.095 0.169)"/><path class="cls-5" d="M299.247,129.578c-10.439,57.884,9.24,100.073,48.911,131.843" transform="translate(0.095 0.169)"/><path class="cls-5" d="M295.176,130.684c-8.268,63.009,13.994,103.14,52.983,130.738" transform="translate(0.095 0.169)"/><path class="cls-5" d="M255.254,148.169q-5.694,82.818,64.877,124.124" transform="translate(0.095 0.169)"/><path class="cls-5" d="M214.986,173.779c2.579,57.414,30.534,95.2,77.822,118.035" transform="translate(0.095 0.169)"/><path class="cls-5" d="M208.855,178.695c7.572,57.23,36.631,93.908,83.953,113.119" transform="translate(0.095 0.169)"/><path class="cls-5" d="M202.645,183.585c10.184,55.74,40.74,91.321,90.164,108.229" transform="translate(0.095 0.169)"/><path class="cls-5" d="M195.213,190.273c14.927,59.985,49.214,91.226,97.6,101.541" transform="translate(0.095 0.169)"/><path class="cls-5" d="M187.544,197.948c17.075,56.214,54.028,84.922,105.265,93.866" transform="translate(0.095 0.169)"/><path class="cls-5" d="M385.083,397.135c-12.058-31-156.766-135.713-223.351-169.749" transform="translate(0.095 0.169)"/><path class="cls-5" d="M166.688,220.609q24.332,72.924,104.877,94.005" transform="translate(0.095 0.169)"/><path class="cls-5" d="M164.177,224.024c17.932,50.734,54.723,79.787,107.388,90.59" transform="translate(0.095 0.169)"/><path class="cls-5" d="M161.732,227.386c18.916,51.5,57.442,78.153,109.833,87.228" transform="translate(0.095 0.169)"/><path class="cls-5" d="M159.169,230.843c21.28,49.839,58.245,78.44,112.4,83.771" transform="translate(0.095 0.169)"/><path class="cls-5" d="M156.7,234.223c22.515,49.787,60.719,76.707,114.864,80.391" transform="translate(0.095 0.169)"/><path class="cls-5" d="M154.218,237.7c21.141,48.3,61.109,72.861,117.347,76.914" transform="translate(0.095 0.169)"/><path class="cls-5" d="M151.765,240.985c22.669,46.636,61.754,72.264,119.8,73.629" transform="translate(0.095 0.169)"/><path class="cls-5" d="M149.271,244.387c30.717,55.435,73.494,72.431,122.294,70.227" transform="translate(0.095 0.169)"/><path class="cls-5" d="M258.141,336.47c-55.418,2.788-98.664-15.471-126.029-61.193" transform="translate(0.095 0.169)"/><path class="cls-5" d="M247.594,369.718c-55.951,13.544-101.684,2.308-135.8-37.091" transform="translate(0.095 0.169)"/><path class="cls-5" d="M105.827,370.631c47.042,29.5,94.317,26.575,141.767-.913" transform="translate(0.095 0.169)"/><path class="cls-5" d="M246,413.035c-47.72,27.456-94.78,28.278-141.119,0" transform="translate(0.095 0.169)"/><path class="cls-5" d="M105.827,427.9C158.034,451.914,204.71,446.7,246,413.035" transform="translate(0.095 0.169)"/><path class="cls-5" d="M108.727,444.062c53.482,18.5,98.119,3.97,137.275-31.027" transform="translate(0.095 0.169)"/><path class="cls-5" d="M112.571,463.525C161.3,504.6,215.78,508.866,274.853,483.692" transform="translate(0.095 0.169)"/><path class="cls-5" d="M124.817,501.128c57.052,26.859,105.958,15.916,150.036-17.436" transform="translate(0.095 0.169)"/><path class="cls-5" d="M154.1,555.909c56.859-.132,96.03-25.763,120.757-72.217" transform="translate(0.095 0.169)"/><path class="cls-5" d="M217.078,621.412c44.385-30.917,64.891-76.079,57.775-137.72" transform="translate(0.095 0.169)"/><path class="cls-5" d="M270.75,652.987c44.3-26.8,67.363-67.321,63.66-125.133" transform="translate(0.095 0.169)"/><path class="cls-5" d="M279.25,657.227c42.568-29.01,62.2-71.4,55.16-129.374" transform="translate(0.095 0.169)"/><path class="cls-5" d="M287.873,660.395c41.569-32.382,56.4-76.871,46.536-132.541" transform="translate(0.095 0.169)"/><path class="cls-5" d="M297.583,663.227q58.043-51.3,36.826-135.374" transform="translate(0.095 0.169)"/><path class="cls-5" d="M305.75,666.153c39.5-34.021,56.69-77.468,45.268-133.006" transform="translate(0.095 0.169)"/><path class="cls-5" d="M313.083,668.274c41.516-39.66,52.544-85,37.935-135.126" transform="translate(0.095 0.169)"/><path class="cls-5" d="M320.583,670.394c39.462-36.837,44.743-84.064,30.435-137.247" transform="translate(0.095 0.169)"/><path class="cls-5" d="M328.25,671.413c37.239-39.5,39.433-86.79,22.768-138.265" transform="translate(0.095 0.169)"/><path class="cls-5" d="M333.744,672.444c23.258-26.12,35.621-69.177,32.564-136.205" transform="translate(0.095 0.169)"/><path class="cls-5" d="M337.932,673.1c30.47-34.486,33.482-83.521,28.376-136.857" transform="translate(0.095 0.169)"/><path class="cls-5" d="M342.043,673.712c29.907-34.592,34.2-90.709,24.265-137.474" transform="translate(0.095 0.169)"/><path class="cls-5" d="M346.293,674.392c30.156-39.56,33.085-86.646,20.016-138.154" transform="translate(0.095 0.169)"/><path class="cls-5" d="M350.026,675.021c30.471-42.193,33.221-88.889,16.282-138.783" transform="translate(0.095 0.169)"/><path class="cls-5" d="M354.587,675.654c30.085-44.458,32.46-91.048,11.722-139.416" transform="translate(0.095 0.169)"/><path class="cls-5" d="M358.706,676.28c29.285-41.787,31.317-88.559,7.6-140.042" transform="translate(0.095 0.169)"/><path class="cls-5" d="M362.876,676.923c29.853-42.35,28.436-89.651,3.432-140.685" transform="translate(0.095 0.169)"/><path class="cls-5" d="M375.486,677.377c33.87-39.03,39.743-86,20.017-140.244" transform="translate(0.095 0.169)"/><path class="cls-5" d="M399.347,677.377q39.23-69.473-3.844-140.244" transform="translate(0.095 0.169)"/><path class="cls-5" d="M419.818,675.216C440.431,627.03,433,580.951,395.5,537.133" transform="translate(0.095 0.169)"/><path class="cls-5" d="M433.417,673.533c15.537-53.331.809-98.214-37.914-136.4" transform="translate(0.095 0.169)"/><path class="cls-5" d="M444.024,671.592c10.583-57.471-6.053-102.073-48.521-134.459" transform="translate(0.095 0.169)"/><path class="cls-5" d="M484.859,658.987c8.755-56.212-8.3-99.745-50.068-131.133" transform="translate(0.095 0.169)"/><path class="cls-5" d="M530.82,636.536c-1.719-59.813-31.636-95.755-80.52-115.642" transform="translate(0.095 0.169)"/><path class="cls-5" d="M535.834,633.285c-5.434-54.863-34.82-91.668-85.534-112.391" transform="translate(0.095 0.169)"/><path class="cls-5" d="M546.638,626.18c-.071-53.212-22.312-94.6-71.53-121.616" transform="translate(0.095 0.169)"/><path class="cls-5" d="M574.882,603.736c-13.693-65.286-62.574-89-99.774-99.172" transform="translate(0.095 0.169)"/><path class="cls-5" d="M602.591,574.248q-30.972-79.884-110.217-87.135" transform="translate(0.095 0.169)"/><path class="cls-5" d="M606.832,568.592c-22.322-53.291-62.67-76.827-114.458-81.478" transform="translate(0.095 0.169)"/><path class="cls-5" d="M611.783,562.4c-18.628-52.9-56.47-80.482-110.3-87" transform="translate(0.095 0.169)"/><path class="cls-5" d="M617.794,553.566Q583.4,479.317,501.483,475.4" transform="translate(0.095 0.169)"/><path class="cls-5" d="M623.274,544.727c-27.02-48.95-68.04-71.5-121.791-70.06" transform="translate(0.095 0.169)"/><path class="cls-5" d="M637.769,518.034q-47.837-67.568-128.8-55.32" transform="translate(0.095 0.169)"/><path class="cls-5" d="M641.3,510.528Q597.519,440.415,516.833,444.9" transform="translate(0.095 0.169)"/><path class="cls-5" d="M645.371,500.721c-33.629-46.981-77.265-63.156-128.537-55.817" transform="translate(0.095 0.169)"/><path class="cls-5" d="M650.144,489.234c-34.747-41.992-79.55-55.74-133.31-44.329" transform="translate(0.095 0.169)"/><path class="cls-5" d="M653.987,477.125c-38.9-39.313-85.512-46.292-137.154-32.22" transform="translate(0.095 0.169)"/><path class="cls-5" d="M658.947,457.535q-49.812-63.71-134.09-49.721" transform="translate(0.095 0.169)"/><path class="cls-5" d="M665.187,413.25c-48.557-30.438-95.268-31.2-140.33-5.436" transform="translate(0.095 0.169)"/><path class="cls-5" d="M664.474,374.979c-54.525-18.229-100.384-4.8-139.618,32.835" transform="translate(0.095 0.169)"/><path class="cls-5" d="M663.066,361.386c-48.857-29.27-96.059-25.444-142.053,2.534" transform="translate(0.095 0.169)"/><path class="cls-5" d="M660.176,343.506c-53.686-23.186-99.085-12.3-139.164,20.414" transform="translate(0.095 0.169)"/><path class="cls-5" d="M655.484,323.383q-76.3-20.269-134.471,40.537" transform="translate(0.095 0.169)"/><path class="cls-5" d="M649.836,305.566c-59.459-6.478-100.451,16.033-128.823,58.354" transform="translate(0.095 0.169)"/><path class="cls-5" d="M501.483,475.4c-25.21-51.019-64.784-75.561-116.212-78.253" transform="translate(0.095 0.169)"/><path class="cls-5" d="M602.717,36.726c-48.46,25.152-70.187,66.817-72.627,120.395" transform="translate(0.095 0.169)"/><path class="cls-5" d="M624.861,51.111C575.077,73.683,553,115.385,548.985,169.551" transform="translate(0.095 0.169)"/><path class="cls-5" d="M629.1,54.167c-48.877,19.579-74.812,58.7-80.117,115.384" transform="translate(0.095 0.169)"/><path class="cls-5" d="M670.714,88.217c-48.929,17.725-81.005,51.66-89.064,108.7" transform="translate(0.095 0.169)"/><path class="cls-5" d="M708.293,127.706q-90.218-2.116-126.643,70.386" transform="translate(0.095 0.169)"/><path class="cls-5" d="M736.072,164.663Q652.964,168.556,619,242.225" transform="translate(0.095 0.169)"/><path class="cls-5" d="M755.8,198.092c-54.742-.875-94.18,24.469-119.8,73.484" transform="translate(0.095 0.169)"/><path class="cls-5" d="M772.713,233.9c-55.826-14.77-101.6-2.765-136.713,37.679" transform="translate(0.095 0.169)"/><path class="cls-5" d="M779.894,251.921c-55.969-8.515-98,12.137-130.057,53.645" transform="translate(0.095 0.169)"/><path class="cls-5" d="M785.413,267.239c-57.481-12.761-102.1,1.211-135.576,38.327" transform="translate(0.095 0.169)"/><path class="cls-5" d="M789.1,280.436Q707.656,263.2,655.484,323.383" transform="translate(0.095 0.169)"/><path class="cls-5" d="M792.313,292.586q-80.776-26.556-136.829,30.8" transform="translate(0.095 0.169)"/><path class="cls-5" d="M794.433,300.5c-59.328-14.224-102.353,3.5-134.257,43.011" transform="translate(0.095 0.169)"/><path class="cls-5" d="M795.466,304.54c-54.675-16.881-98.6-.227-135.289,38.966" transform="translate(0.095 0.169)"/><path class="cls-5" d="M796.5,308.585c-57.189-17.452-100.452-.419-136.321,34.922" transform="translate(0.095 0.169)"/><path class="cls-5" d="M797.53,312.629c-55.553-18.773-99.833-4-137.353,30.877" transform="translate(0.095 0.169)"/><path class="cls-5" d="M798.674,318.593c-54.584-23.069-98.874-7.773-138.5,24.913" transform="translate(0.095 0.169)"/><path class="cls-5" d="M800.088,324.236c-51.09-25.907-97.029-14.418-139.911,19.27" transform="translate(0.095 0.169)"/><path class="cls-5" d="M800.795,328.263c-50.163-27.869-96.45-16.919-140.618,15.244" transform="translate(0.095 0.169)"/><path class="cls-5" d="M801.5,332.289c-48.974-28.263-95.906-21.508-141.325,11.217" transform="translate(0.095 0.169)"/><path class="cls-5" d="M801.5,336.316c-45.138-29.877-92.4-24.975-141.325,7.191" transform="translate(0.095 0.169)"/><path class="cls-5" d="M805.037,379.473c-50.545-17.441-96.882-4.14-139.851,33.777" transform="translate(0.095 0.169)"/><path class="cls-5" d="M805.607,388.414c-48.79-20.44-95.516-10.994-140.421,24.836" transform="translate(0.095 0.169)"/><path class="cls-5" d="M805.607,401.032c-48.753-25.655-95.482-20.4-140.421,12.218" transform="translate(0.095 0.169)"/><path class="cls-5" d="M805.037,414.663c-47.247-29.86-93.827-28.62-139.851-1.413" transform="translate(0.095 0.169)"/><path class="cls-5" d="M804.513,424.062c-44.1-32.965-90.634-35.391-139.326-10.813" transform="translate(0.095 0.169)"/><path class="cls-5" d="M803.884,432.43c-41.533-34.545-88-39.531-138.7-19.181" transform="translate(0.095 0.169)"/><path class="cls-5" d="M802.393,448.325c-36.408-39.818-83-48.93-137.206-35.076" transform="translate(0.095 0.169)"/><path class="cls-5" d="M800.223,464.481Q749.8,398.135,665.187,413.25" transform="translate(0.095 0.169)"/><path class="cls-5" d="M798.549,471.333c-40.359-33.213-87.541-34.811-139.6-13.8" transform="translate(0.095 0.169)"/><path class="cls-5" d="M797.357,478.914c-40.774-36.581-87.612-39.857-138.41-21.379" transform="translate(0.095 0.169)"/><path class="cls-5" d="M796.211,484.014c-37.941-36.97-84.8-41.814-137.264-26.479" transform="translate(0.095 0.169)"/><path class="cls-5" d="M795.065,489.115c-35.045-38.438-81.839-45.122-136.118-31.58" transform="translate(0.095 0.169)"/><path class="cls-5" d="M793.919,494.215c-34.409-39.666-80.289-48.846-134.254-36.541" transform="translate(0.095 0.169)"/><path class="cls-5" d="M792.772,499.315c-31.334-40.242-77.64-50.8-133.826-41.78" transform="translate(0.095 0.169)"/><path class="cls-5" d="M791.626,504.415c-32.852-42.334-78.848-53.806-132.68-46.88" transform="translate(0.095 0.169)"/><path class="cls-5" d="M782.306,535.8c-29.111-37.367-74.332-53.736-128.319-58.68" transform="translate(0.095 0.169)"/><path class="cls-5" d="M777.4,548.142c-32.1-42.682-77.271-55.879-132.03-47.422" transform="translate(0.095 0.169)"/><path class="cls-5" d="M774.13,556.616c-27.682-42.9-72-59.3-128.759-55.895" transform="translate(0.095 0.169)"/><path class="cls-5" d="M766.1,575.643q-33.513-57.367-124.8-65.115" transform="translate(0.095 0.169)"/><path class="cls-5" d="M737.859,626.177c-28.112-54.324-71.705-69.5-120.065-72.611" transform="translate(0.095 0.169)"/><path class="cls-5" d="M735.134,630.044c-18.246-48.5-60.334-70.712-117.34-76.479" transform="translate(0.095 0.169)"/><path class="cls-5" d="M732.408,633.912c-17.854-50.26-58.82-73.856-114.614-80.346" transform="translate(0.095 0.169)"/><path class="cls-5" d="M729.683,637.78c-18.421-52.6-58.085-77.592-111.889-84.214" transform="translate(0.095 0.169)"/><path class="cls-5" d="M691.182,685.795c-24.863-55.208-65.524-78.766-116.3-82.059" transform="translate(0.095 0.169)"/><path class="cls-5" d="M628.117,740.218c-8.594-53.36-42.005-87.149-97.3-103.682" transform="translate(0.095 0.169)"/><path class="cls-5" d="M359.942,800c22.148-39.055,22.2-80.167,2.934-123.077" transform="translate(0.095 0.169)"/><path class="cls-5" d="M260.488,799.058c38.379-30.814,47.824-77.874,37.095-135.83" transform="translate(0.095 0.169)"/><path class="cls-5" d="M256.51,798.123q54.513-36.605,41.074-134.9" transform="translate(0.095 0.169)"/><path class="cls-5" d="M252.531,796c39.163-23.712,51.1-65.327,45.052-132.775" transform="translate(0.095 0.169)"/><path class="cls-5" d="M248.552,794.475c38.982-20.053,54.6-64.562,49.031-131.248" transform="translate(0.095 0.169)"/><path class="cls-5" d="M244.574,792.948c39.344-24.14,52.707-69.186,43.3-132.553" transform="translate(0.095 0.169)"/><path class="cls-5" d="M240.595,791.42q57.912-31.654,47.278-131.026" transform="translate(0.095 0.169)"/><path class="cls-5" d="M236.616,789.893c40.326-17.224,54.76-63.35,51.257-129.5" transform="translate(0.095 0.169)"/><path class="cls-5" d="M232.637,788.365c37.551-11.967,55.069-56.057,55.236-127.971" transform="translate(0.095 0.169)"/><path class="cls-5" d="M228.659,786.838q58.887-34.2,50.591-129.61" transform="translate(0.095 0.169)"/><path class="cls-5" d="M224.68,785.31c40.328-19.961,57.62-63.578,54.57-128.083" transform="translate(0.095 0.169)"/><path class="cls-5" d="M220.7,783.783c38.7-16.85,58.833-58.216,58.549-126.555" transform="translate(0.095 0.169)"/><path class="cls-5" d="M216.723,782.255c41.841-25.426,58.677-69.385,54.027-129.268" transform="translate(0.095 0.169)"/><path class="cls-5" d="M212.744,780.728c42.337-22.681,60.87-67.361,58.006-127.741" transform="translate(0.095 0.169)"/><path class="cls-5" d="M208.765,779.2c41.886-19.038,61.634-62.1,61.985-126.214" transform="translate(0.095 0.169)"/><path class="cls-5" d="M199.466,774.7c35.082-45.83,41.594-96.809,17.612-153.285" transform="translate(0.095 0.169)"/><path class="cls-5" d="M176.772,762.3c39.166-30.886,53.257-77.439,40.306-140.887" transform="translate(0.095 0.169)"/><path class="cls-5" d="M150.252,746.085c42.177-24.381,66.871-63.851,66.826-124.672" transform="translate(0.095 0.169)"/><path class="cls-5" d="M129.335,730.884c48.692-16.116,77.525-53.041,87.743-109.471" transform="translate(0.095 0.169)"/><path class="cls-5" d="M114.44,719.481c48.855-8.863,84.986-38.43,102.638-98.069" transform="translate(0.095 0.169)"/><path class="cls-5" d="M103.815,709.822c52.51-4.6,90.892-33.008,113.263-88.41" transform="translate(0.095 0.169)"/><path class="cls-5" d="M83.512,690.42c54.916,2.912,100.687-16.976,133.566-69.008" transform="translate(0.095 0.169)"/><path class="cls-5" d="M52.288,654.369c52.648-11.581,86.2-44.833,101.807-98.46" transform="translate(0.095 0.169)"/><path class="cls-5" d="M30.084,622.7c49.625,4.563,91.43-16.187,124.012-66.789" transform="translate(0.095 0.169)"/><path class="cls-5" d="M17.75,603c52.4,12.679,98.032-2.273,136.346-47.091" transform="translate(0.095 0.169)"/><path class="cls-5" d="M9.5,587c52.645-1.91,90.486-31.66,115.317-85.872" transform="translate(0.095 0.169)"/><path class="cls-5" d="M.005,511.436c47.906,3.114,84.681-14.228,112.565-47.911" transform="translate(0.095 0.169)"/><path class="cls-5" d="M0,503.643q61.768,9.56,112.574-40.118" transform="translate(0.095 0.169)"/><path class="cls-5" d="M0,496.18c40.048,6.962,77.625-3.535,112.566-32.655" transform="translate(0.095 0.169)"/><path class="cls-5" d="M0,484.39c44.778,3.138,81.209-9.941,108.73-40.328" transform="translate(0.095 0.169)"/><path class="cls-5" d="M0,477.892c41.663,5.146,78.217-5.183,108.722-33.83" transform="translate(0.095 0.169)"/><path class="cls-5" d="M0,471.315c43.843,7.009,80.267-2.114,108.722-28.563" transform="translate(0.095 0.169)"/><path class="cls-5" d="M0,461.087c41.733,3.317,77.226-7.259,105.823-33.191" transform="translate(0.095 0.169)"/><path class="cls-5" d="M.005,455.808C39.744,461.4,74.981,452.67,105.827,427.9" transform="translate(0.095 0.169)"/><path class="cls-5" d="M0,451.142c37.927,7.166,73.246-.341,105.828-23.246" transform="translate(0.095 0.169)"/><path class="cls-5" d="M0,435.667c38.9,6.08,74-.96,104.884-22.632" transform="translate(0.095 0.169)"/><path class="cls-5" d="M637.769,518.034C400.662,374.7,155.128,367.28,0,412.279" transform="translate(0.095 0.169)"/><path class="cls-5" d="M111.791,332.627C74.67,356.915,37.416,362.2.035,348.864" transform="translate(0.095 0.169)"/><path class="cls-5" d="M.034,321.069c30.133,17.153,63.657,27.971,111.757,11.558" transform="translate(0.095 0.169)"/><path class="cls-5" d="M.036,311.465c231.152,55.389,498.952-23.5,670.679-223.247" transform="translate(0.095 0.169)"/><path class="cls-5" d="M132.112,275.277C94.8,301.928,51.337,311.956.035,300.784" transform="translate(0.095 0.169)"/><path class="cls-5" d="M0,296.341c46.5,13.27,90.507,5.955,132.113-21.064" transform="translate(0.095 0.169)"/><path class="cls-5" d="M.036,292.466c43.784,14.705,87.814,8.543,132.076-17.189" transform="translate(0.095 0.169)"/><path class="cls-5" d="M.035,287.693Q63,312.306,132.112,275.277" transform="translate(0.095 0.169)"/><path class="cls-5" d="M46.919,146.254c27.872,59.738,69.168,77.272,114.813,81.133" transform="translate(0.095 0.169)"/><path class="cls-5" d="M51.875,139.476q23.5,75.073,109.857,87.91" transform="translate(0.095 0.169)"/><path class="cls-5" d="M49.364,142.891c17.347,48.866,54.672,77.166,112.368,84.495" transform="translate(0.095 0.169)"/><path class="cls-5" d="M187.544,197.948c-50.6-10.647-87.346-39.361-102.835-95.8" transform="translate(0.095 0.169)"/><path class="cls-5" d="M88.208,98.778c11.471,51.64,44.7,84.6,99.335,99.17" transform="translate(0.095 0.169)"/><path class="cls-5" d="M91.833,94.537c9.658,51.863,40.426,87.22,95.71,103.411" transform="translate(0.095 0.169)"/><path class="cls-5" d="M97.083,90.3c14.031,55.348,46.225,89.283,98.13,99.976" transform="translate(0.095 0.169)"/><path class="cls-5" d="M103.208,84.4c8.621,54.291,39.009,89.822,92,105.87" transform="translate(0.095 0.169)"/><path class="cls-5" d="M108.958,79.278c8.828,55.239,41.644,88.558,93.686,104.307" transform="translate(0.095 0.169)"/><path class="cls-5" d="M114.083,75.037c9.642,58.993,41.055,93,88.561,108.548" transform="translate(0.095 0.169)"/><path class="cls-5" d="M347.922,0c-5.634,56.754,16.364,95.216,40.99,116.413" transform="translate(0.095 0.169)"/><path class="cls-5" d="M355.23,0c-5.819,56.754,9.056,95.216,33.682,116.413" transform="translate(0.095 0.169)"/><path class="cls-5" d="M360.228,0c-5.945,56.754,4.058,95.216,28.684,116.413" transform="translate(0.095 0.169)"/><path class="cls-5" d="M365.226,0c-6.072,56.756-.941,95.218,23.686,116.417" transform="translate(0.095 0.169)"/><path class="cls-5" d="M370.223,0c-6.2,56.754-5.938,95.216,18.689,116.413" transform="translate(0.095 0.169)"/><path class="cls-5" d="M375.154,0c-7.29,51.837-10.837,95.242,13.758,116.413" transform="translate(0.095 0.169)"/><path class="cls-5" d="M380.039,0c-7.816,40.811-15.624,95.326,8.873,116.413" transform="translate(0.095 0.169)"/><path class="cls-5" d="M384.891,0c-9.45,36.794-20.426,95.373,4.021,116.417" transform="translate(0.095 0.169)"/><path class="cls-5" d="M389.61,0c-11.036,29.5-25.01,95.486-.7,116.413" transform="translate(0.095 0.169)"/><path class="cls-5" d="M394.6,0c-11.279,29.5-30,95.489-5.69,116.417" transform="translate(0.095 0.169)"/><path class="cls-5" d="M399.591,0c-11.522,29.5-34.991,95.486-10.679,116.413" transform="translate(0.095 0.169)"/><path class="cls-5" d="M785.413,267.239c28.736-38.951,70.381-58.665,131.2-49.808" transform="translate(0.095 0.169)"/><path class="cls-5" d="M918.73,224.907c-58.5-12.587-102.148,3.024-133.317,42.332" transform="translate(0.095 0.169)"/><path class="cls-5" d="M920.85,231.352c-57.215-14.834-101.922-1.9-135.438,35.886" transform="translate(0.095 0.169)"/><path class="cls-5" d="M935.872,292.125c-55.115-19.7-100.36-9.4-137.2,26.469" transform="translate(0.095 0.169)"/><path class="cls-5" d="M945.171,370.573c-51.837-27.47-97.806-20.1-140.133,8.9" transform="translate(0.095 0.169)"/><path class="cls-5" d="M945.752,376.245c-47.537-27.471-94.438-26.247-140.714,3.228" transform="translate(0.095 0.169)"/><path class="cls-5" d="M945.752,381.917c-50.328-26.409-96.836-22.614-140.144,6.5" transform="translate(0.095 0.169)"/><path class="cls-5" d="M945.752,388.448c-44.642-29.979-91.446-28.694-140.144-.035" transform="translate(0.095 0.169)"/><path class="cls-5" d="M1083.748,338.117c-65.721-11.37-107.817,10.977-138,50.332" transform="translate(0.095 0.169)"/><path class="cls-5" d="M942.986,455.253c-43.917-32.717-91.077-31.978-140.593-6.928" transform="translate(0.095 0.169)"/><path class="cls-5" d="M941.836,465.918c-40.778-35.4-88.156-36.621-139.443-17.593" transform="translate(0.095 0.169)"/><path class="cls-5" d="M940.362,476.583c-51.12-48.9-94.331-36.931-137.969-28.258" transform="translate(0.095 0.169)"/><path class="cls-5" d="M1082.724,464.544c-46.641-29.983-93.217-31.627-139.738-9.291" transform="translate(0.095 0.169)"/><path class="cls-5" d="M1082.2,472.231c-42.279-35.457-89.017-38.7-139.21-16.978" transform="translate(0.095 0.169)"/><path class="cls-5" d="M1081,478.2C1038,445.073,991.337,443.3,941.836,465.918" transform="translate(0.095 0.169)"/><path class="cls-5" d="M937.992,492.289c-41.051-34.828-88.14-38.7-139.443-20.955" transform="translate(0.095 0.169)"/><path class="cls-5" d="M936.921,496.529c-36.846-36.683-84.662-39.924-138.372-25.2" transform="translate(0.095 0.169)"/><path class="cls-5" d="M935.872,500.77C899.814,463.079,852.389,458,798.549,471.333" transform="translate(0.095 0.169)"/><path class="cls-5" d="M930.018,530.733c-36.879-36.664-83.1-45.739-137.245-31.418" transform="translate(0.095 0.169)"/><path class="cls-5" d="M928.9,534.974c-35.337-39-81.659-48.33-136.128-35.659" transform="translate(0.095 0.169)"/><path class="cls-5" d="M927.9,539.215c-34.669-39.429-80.84-49.094-136.271-34.8" transform="translate(0.095 0.169)"/><path class="cls-5" d="M926.178,542.794c-33.085-40.621-78.9-51.125-134.552-38.379" transform="translate(0.095 0.169)"/><path class="cls-5" d="M908.045,599.97c-40.353-41.133-89.363-41.2-141.942-24.327" transform="translate(0.095 0.169)"/><path class="cls-5" d="M906.5,604.211c-35.884-40.617-84.448-45.111-140.4-28.568" transform="translate(0.095 0.169)"/><path class="cls-5" d="M904.78,608.451C872.853,569.5,824.785,562.178,766.1,575.643" transform="translate(0.095 0.169)"/><path class="cls-5" d="M1049.626,620.485c-49-36.566-97.138-33.895-144.847-12.034" transform="translate(0.095 0.169)"/><path class="cls-5" d="M797,778.084c-18.582-55.453-55.868-83.239-105.819-92.29" transform="translate(0.095 0.169)"/><path class="cls-5" d="M794.136,781.074c-15.966-55.218-51.736-85.121-102.954-95.279" transform="translate(0.095 0.169)"/><path class="cls-5" d="M548.985,167.431C664.174,407.515,817.969,620.79,986.156,800" transform="translate(0.095 0.169)"/><path class="cls-5" d="M132.112,275.277c-48.261,75.893-48.6,151.556-7.3,227.018" transform="translate(0.095 0.169)"/><path class="cls-5" d="M375.486,677.377Q130.86,549.006,132.112,275.277" transform="translate(0.095 0.169)"/><path class="cls-5" d="M399.347,677.377C252.531,607.579,142,484.014,132.112,275.277" transform="translate(0.095 0.169)"/><path class="cls-5" d="M574.882,603.736C345.429,574.965,202.15,461.228,132.112,275.277" transform="translate(0.095 0.169)"/><path class="cls-5" d="M1082.2,472.231C721.24,594.808,405.213,537.455,132.112,275.277" transform="translate(0.095 0.169)"/><path class="cls-5" d="M1082.724,464.544c-351.71,121.768-671.462,73.968-950.612-189.267" transform="translate(0.095 0.169)"/><path class="cls-5" d="M805.607,401.032c-83.457,91.809-183.568,106.683-296.642,61.682" transform="translate(0.095 0.169)"/><path class="cls-5" d="M450.3,520.894c130.274,29.327,250.836,1.812,355.307-119.863" transform="translate(0.095 0.169)"/><path class="cls-5" d="M805.037,414.663c-95.526,76.18-194.2,92.552-296.072,48.051" transform="translate(0.095 0.169)"/><path class="cls-5" d="M941.836,465.918c-179.411,52.2-326.655,55.331-449.462,21.195" transform="translate(0.095 0.169)"/><path class="cls-5" d="M940.362,476.583C635.4,569.219,367.506,500.715,132.112,275.277" transform="translate(0.095 0.169)"/><path class="cls-5" d="M132.112,275.277C233.525,335.472,335.17,327.812,437,266.857" transform="translate(0.095 0.169)"/><path class="cls-5" d="M670.714,88.217C472.581,305.135,245.445,360.018,0,312.6" transform="translate(0.095 0.169)"/><path class="cls-5" d="M255.254,148.169C238.192,214.86,200.565,260.7,132.112,275.277" transform="translate(0.095 0.169)"/><path class="cls-5" d="M508.966,462.713C488.845,311.217,406.723,204.6,255.254,148.169" transform="translate(0.095 0.169)"/><path class="cls-5" d="M437,267.732c54.024,80.055,59.952,164.312,13.3,253.162" transform="translate(0.095 0.169)"/><path class="cls-5" d="M255.254,148.169C399.139,240.02,462.247,365.045,450.3,520.894" transform="translate(0.095 0.169)"/><path class="cls-5" d="M357,677.377C430.8,552.828,441.242,416.528,348,261" transform="translate(0.095 0.169)"/><path class="cls-5" d="M492.374,487.113C339.145,330.552,174.332,221.162,0,150.53" transform="translate(0.095 0.169)"/><path class="cls-5" d="M433.5,673.5c-14.348-83.624,5.285-155.754,75.466-210.787" transform="translate(0.095 0.169)"/><path class="cls-5" d="M420,673.5c-19.686-54.414-11.966-105.566,30.3-152.606" transform="translate(0.095 0.169)"/><path class="cls-5" d="M637.4,517.66C430.183,395.54,217.851,358.191,0,412.258" transform="translate(0.095 0.169)"/><path class="cls-5" d="M781.867,533.91C717.4,630.484,669.328,721.071,645.013,800" transform="translate(0.095 0.169)"/><path class="cls-5" d="M574.882,603.736C722.287,403.806,826.641,200.414,876.673,0" transform="translate(0.095 0.169)"/><path class="cls-5" d="M508.966,462.713C585.9,296.1,622.023,140.142,613.266,0" transform="translate(0.095 0.169)"/><path class="cls-5" d="M450.3,520.894C549,344.878,621.374,165.305,654.393,0" transform="translate(0.095 0.169)"/><path class="cls-5" d="M450.3,520.894C536.828,367.8,586.34,185.947,590.61,0" transform="translate(0.095 0.169)"/><path class="cls-5" d="M450.3,520.894C507.1,359.8,530.1,178.2,511.247,0" transform="translate(0.095 0.169)"/><path class="cls-5" d="M755.3,197.864C557.535,348.587,353.5,375.343,132.112,275.277" transform="translate(0.095 0.169)"/><path class="cls-5" d="M132.112,275.277C274.872,193.446,395.813,94.869,483.04,0" transform="translate(0.095 0.169)"/><path class="cls-5" d="M132.112,275.277C236.443,203.657,340.887,116.349,445.542,0" transform="translate(0.095 0.169)"/><path class="cls-5" d="M132.112,275.277C217.152,196.9,290.219,93.319,336.978,0" transform="translate(0.095 0.169)"/><path class="cls-5" d="M132.112,275.277C204.878,186.009,258.654,90.156,288.364,0" transform="translate(0.095 0.169)"/><path class="cls-5" d="M124.817,502.295c57.4,79.683,63.874,161.011,25.435,243.79" transform="translate(0.095 0.169)"/><path class="cls-5" d="M132.112,275.277C88.248,248.338,44.21,234.071,0,232.181" transform="translate(0.095 0.169)"/><path class="cls-5" d="M654.1,476.327c183.545,119.914,365.246,161.664,545.483,141.4" transform="translate(0.095 0.169)"/><path class="cls-5" d="M945.752,388.448C1024.065,268.716,1094.8,132.571,1136.408,0" transform="translate(0.095 0.169)"/><path class="cls-5" d="M1133.379,0q-66.555,200.433-187.627,381.916" transform="translate(0.095 0.169)"/></g></svg>
