<?xml version="1.0" encoding="UTF-8" standalone="no"?>
<!-- Created with Inkscape (http://www.inkscape.org/) -->

<svg
   xmlns:dc="http://purl.org/dc/elements/1.1/"
   xmlns:cc="http://creativecommons.org/ns#"
   xmlns:rdf="http://www.w3.org/1999/02/22-rdf-syntax-ns#"
   xmlns:svg="http://www.w3.org/2000/svg"
   xmlns="http://www.w3.org/2000/svg"
   xmlns:sodipodi="http://sodipodi.sourceforge.net/DTD/sodipodi-0.dtd"
   xmlns:inkscape="http://www.inkscape.org/namespaces/inkscape"
   version="1.1"
   id="svg2"
   width="30"
   height="30"
   viewBox="0 0 30 30"
   sodipodi:docname="genelist.svg"
   inkscape:version="0.92.0 r15299">
  <metadata
     id="metadata8">
    <rdf:RDF>
      <cc:Work
         rdf:about="">
        <dc:format>image/svg+xml</dc:format>
        <dc:type
           rdf:resource="http://purl.org/dc/dcmitype/StillImage" />
        <dc:title></dc:title>
      </cc:Work>
    </rdf:RDF>
  </metadata>
  <defs
     id="defs6">
    <clipPath
       clipPathUnits="userSpaceOnUse"
       id="clipPath4484">
      <rect
         style="opacity:1;vector-effect:none;fill:#072371;fill-opacity:1;stroke:none;stroke-width:5;stroke-linecap:butt;stroke-linejoin:miter;stroke-miterlimit:4;stroke-dasharray:none;stroke-dashoffset:0;stroke-opacity:1"
         id="rect4486"
         width="18.152542"
         height="10.067797"
         x="21.355932"
         y="-33.610168" />
    </clipPath>
    <clipPath
       clipPathUnits="userSpaceOnUse"
       id="clipPath4509">
      <rect
         style="opacity:1;vector-effect:none;fill:#072371;fill-opacity:1;stroke:none;stroke-width:9.97194958;stroke-linecap:butt;stroke-linejoin:miter;stroke-miterlimit:4;stroke-dasharray:none;stroke-dashoffset:0;stroke-opacity:1"
         id="rect4511"
         width="43.322033"
         height="16.779661"
         x="8.8474579"
         y="-40.322033" />
    </clipPath>
    <clipPath
       clipPathUnits="userSpaceOnUse"
       id="clipPath4621">
      <rect
         style="opacity:1;vector-effect:none;fill:#4d4d4d;fill-opacity:0.60220995;stroke:none;stroke-width:1.87421107;stroke-linecap:butt;stroke-linejoin:miter;stroke-miterlimit:4;stroke-dasharray:none;stroke-dashoffset:0;stroke-opacity:1"
         id="rect4623"
         width="50.68391"
         height="45.694695"
         x="-0.063373178"
         y="-0.085487813"
         inkscape:export-xdpi="900.90002"
         inkscape:export-ydpi="900.90002" />
    </clipPath>
    <clipPath
       clipPathUnits="userSpaceOnUse"
       id="clipPath4550-0-8">
      <rect
         style="opacity:1;vector-effect:none;fill:#ffff00;fill-opacity:0.52763821;stroke:#ff6600;stroke-width:0.29781041;stroke-linecap:butt;stroke-linejoin:miter;stroke-miterlimit:4;stroke-dasharray:none;stroke-dashoffset:0;stroke-opacity:1"
         id="rect4552-0-0"
         width="33.37719"
         height="14.252191"
         x="1.7489052"
         y="-41.376377" />
    </clipPath>
    <clipPath
       clipPathUnits="userSpaceOnUse"
       id="clipPath4550-0-2-4">
      <rect
         style="opacity:1;vector-effect:none;fill:#ffff00;fill-opacity:0.52763821;stroke:#ff6600;stroke-width:0.29781041;stroke-linecap:butt;stroke-linejoin:miter;stroke-miterlimit:4;stroke-dasharray:none;stroke-dashoffset:0;stroke-opacity:1"
         id="rect4552-0-8-4"
         width="33.37719"
         height="14.252191"
         x="1.7489052"
         y="-41.376377" />
    </clipPath>
  </defs>
  <sodipodi:namedview
     pagecolor="#ffffff"
     bordercolor="#666666"
     borderopacity="1"
     objecttolerance="10"
     gridtolerance="10"
     guidetolerance="10"
     inkscape:pageopacity="0"
     inkscape:pageshadow="2"
     inkscape:window-width="1198"
     inkscape:window-height="911"
     id="namedview4"
     showgrid="false"
     fit-margin-top="0"
     fit-margin-left="0"
     fit-margin-right="0"
     fit-margin-bottom="0"
     inkscape:zoom="2.3177389"
     inkscape:cx="25.475217"
     inkscape:cy="41.182099"
     inkscape:window-x="0"
     inkscape:window-y="30"
     inkscape:window-maximized="0"
     inkscape:current-layer="svg2" />
  <g
     transform="matrix(0.59190382,0,0,0.65653136,0.03751083,0.05612543)"
     id="g4590"
     clip-path="url(#clipPath4621)">
    <rect
       y="0.90000165"
       x="0.90000087"
       height="43.73175"
       width="48.848026"
       id="rect4501"
       style="opacity:1;vector-effect:none;fill:#e6f3e8;fill-opacity:1;stroke:#ffffff;stroke-width:0.30000001;stroke-linecap:butt;stroke-linejoin:miter;stroke-miterlimit:4;stroke-dasharray:none;stroke-dashoffset:0;stroke-opacity:1" />
    <rect
       y="0.90000165"
       x="0.90000087"
       height="43.73175"
       width="48.848026"
       id="rect4542-3-8"
       style="opacity:1;vector-effect:none;fill:#aa1a1a;fill-opacity:0.08627451;stroke:#474747;stroke-width:1.97227883;stroke-linecap:butt;stroke-linejoin:miter;stroke-miterlimit:4;stroke-dasharray:none;stroke-dashoffset:0;stroke-opacity:1" />
    <g
       transform="matrix(1.0146407,0,0,1.0146407,-25.356043,39.199708)"
       id="g4798">
      <path
         transform="matrix(0.97588294,0,0,0.97588294,10.878049,17.050826)"
         style="fill:#4d4d4d;fill-opacity:1;stroke-width:0.22848828"
         d="m 42.933124,-27.38206 c -2.626675,-0.667106 -5.314556,-2.497039 -6.939759,-4.724648 l -0.733432,-1.005289 -0.605358,0.761668 c -3.45288,4.344456 -7.260438,5.942927 -10.672197,4.480354 -1.342573,-0.57555 -3.574512,-2.52784 -4.785347,-4.185782 -0.480825,-0.65838 -0.894897,-1.197047 -0.920149,-1.197047 -0.02526,0 -0.653165,0.74765 -1.39535,1.661451 -2.384576,2.935953 -5.375135,4.563047 -7.8086352,4.248497 -2.200782,-0.284471 -4.745977,-2.08568 -6.448593,-4.563599 -0.424949,-0.618456 -0.842734,-1.124463 -0.928409,-1.124463 -0.08568,0 -0.490105,0.439027 -0.89872901,0.975617 -1.376194,1.807167 -3.65796599,3.337533 -6.16014599,4.131542 -1.918414,0.60877 -5.9395928,0.702822 -6.5230788,0.152567 -0.426851,-0.402538 -0.212779,-0.82201 0.419501,-0.82201 0.440397,0 0.456688,-0.206638 0.456688,-5.792772 0,-4.752032 -0.05668,-5.772266 -0.315446,-5.678619 -0.463661,0.167788 -0.95086,-0.191428 -0.791337,-0.583463 0.209883,-0.515797 2.1330298,-0.695608 4.4790308,-0.418788 3.389139,0.399907 6.554818,2.054147 8.44209599,4.411455 l 0.95745401,1.195912 0.759947,-1.060054 c 0.98962,-1.380416 3.053538,-3.204933 4.367338,-3.860751 1.567349,-0.782383 4.3484992,-0.744977 6.0212122,0.08099 1.404611,0.693581 3.705575,2.631648 4.649608,3.916301 l 0.651296,0.886289 1.361996,-1.616307 c 1.486555,-1.76413 3.666504,-3.299474 5.258852,-3.703825 3.129157,-0.794607 6.835133,0.87554 9.478721,4.271705 l 0.875225,1.12439 0.427887,-0.786539 c 0.709812,-1.304756 2.90729,-3.360883 4.386617,-4.104445 2.321271,-1.166757 5.759538,-1.662817 8.16421,-1.177901 0.875604,0.176572 1.005774,0.985359 0.176464,1.096429 l -0.529393,0.0709 v 5.960057 5.960053 l 0.529393,0.0709 c 0.29117,0.03899 0.5294,0.220678 0.5294,0.403735 0,0.81389 -3.584224,1.143174 -5.937577,0.545484 z m 3.937634,-6.980174 v -6.212806 h -1.058793 -1.058789 v 6.212806 6.212805 h 1.058789 1.058793 z m -54.8218962,0.110943 v -5.87998 h -1.058792 -1.0587908 v 5.732057 c 0,3.152625 0.07059,5.798614 0.1568578,5.879971 0.08627,0.08136 0.562728,0.147928 1.058791,0.147928 h 0.901934 z m 19.0034042,0.05547 0.06279,-5.713566 H 9.9346538 8.7542468 v 5.781191 5.781188 l 1.117613,-0.06763 1.1176162,-0.06763 z m 16.940672,0 0.06279,-5.713566 h -1.1804 -1.180405 v 5.781191 5.781188 l 1.117613,-0.06763 1.117611,-0.06763 z m 15.819088,-0.166416 c 0,-5.775811 -0.01634,-5.990919 -0.455254,-5.990919 -0.250396,0 -0.726853,0.09738 -1.058794,0.216392 l -0.603534,0.216396 v 5.534149 5.534145 l 0.64704,0.222859 c 1.559333,0.53708 1.470542,0.88324 1.470542,-5.733022 z m -48.9985402,5.298261 c 0.527529,-0.183257 0.529395,-0.201497 0.529395,-5.17402 0,-5.519705 0.08789,-5.212472 -1.588187,-5.551824 l -0.764684,-0.154826 v 5.679948 5.679948 l 0.64704,-0.147661 c 0.355872,-0.08122 0.885268,-0.230417 1.176436,-0.331567 z m 12.999612,-5.076372 c 0,-3.696054 -0.07847,-5.325263 -0.256515,-5.325263 -0.141085,0 -0.66822,0.274583 -1.171412,0.610185 l -0.914897,0.610187 -0.005,4.030221 -0.0051,4.030223 0.9875,0.684856 c 0.543124,0.376665 1.07252,0.684851 1.176435,0.684851 0.103916,0 0.188936,-2.396369 0.188936,-5.32526 z m 16.9406712,0 c 0,-3.765112 -0.07678,-5.325263 -0.262075,-5.325263 -0.144138,0 -0.67353,0.218083 -1.176435,0.484629 l -0.914359,0.48463 v 4.173582 4.173583 l 0.976448,0.667051 c 0.537051,0.366879 1.066444,0.667048 1.176434,0.667048 0.109994,0 0.199987,-2.396369 0.199987,-5.32526 z m 6.058645,4.147784 c 0.509993,-0.436475 0.529395,-0.593428 0.529395,-4.282297 v -3.829216 l -0.64704,-0.42742 c -0.355873,-0.235087 -0.885267,-0.544943 -1.176434,-0.688574 l -0.529396,-0.261156 v 5.35859 5.358588 l 0.647041,-0.387714 c 0.355867,-0.213243 0.885268,-0.591601 1.176434,-0.840801 z m -17.398776,0.270736 0.9875,-0.684853 v -3.848698 -3.848698 l -0.647037,-0.42742 c -0.355876,-0.235087 -0.885269,-0.544943 -1.176436,-0.688574 l -0.5294,-0.261156 v 5.222128 c 0,2.87217 0.08502,5.222125 0.188936,5.222125 0.103916,0 0.633309,-0.308186 1.176437,-0.684854 z m 27.339656,-4.640406 c 0,-5.384914 -0.0073,-5.407225 -1.393668,-4.307055 l -0.723915,0.574444 v 3.625235 3.62524 l 0.877111,0.681816 c 0.482413,0.374993 0.958869,0.681807 1.058791,0.681807 0.09992,0 0.181681,-2.19667 0.181681,-4.881487 z m -42.5898802,0.02598 -0.0029,-3.465215 -0.817292,-0.499244 c -0.449531,-0.274584 -0.871737,-0.499246 -0.938258,-0.499246 -0.06652,0 -0.120943,2.048315 -0.120943,4.551812 v 4.55181 l 0.94115,-0.58735 0.941148,-0.587347 z m 23.2478222,-1.634655 -0.06913,-1.608673 -1.233885,1.529109 -1.233882,1.529106 0.511551,0.800695 c 0.281353,0.440379 0.8366,1.196823 1.233885,1.680983 l 0.722331,0.880287 0.06913,-1.601415 c 0.03803,-0.880784 0.03803,-2.325323 0,-3.210092 z m -16.8921572,1.692441 c 0,-3.142804 -0.05414,-3.188321 -1.414469,-1.189168 -0.64027,0.940946 -0.697804,1.14504 -0.448673,1.591616 0.405213,0.726363 1.629942,2.398291 1.756802,2.398291 0.05849,0 0.10634,-1.260331 0.10634,-2.800739 z m 12.8399502,0.08818 c 0.146159,-0.434286 -0.678389,-1.761157 -1.564216,-2.517159 -0.444276,-0.379169 -0.45253,-0.334299 -0.45253,2.461828 v 2.848036 l 0.937028,-1.184367 c 0.515369,-0.651402 1.001238,-1.375156 1.079718,-1.608341 z m 16.21739,1.35825 1.057206,-1.354315 -0.410648,-0.664479 c -0.225859,-0.36546 -0.750355,-1.029093 -1.165539,-1.474729 l -0.754891,-0.810253 -0.0098,2.829048 c -0.0054,1.55597 0.04337,2.829039 0.108337,2.829039 0.06497,0 0.593871,-0.609436 1.17533,-1.354307 z m 4.070786,-3.036633 -0.07028,-1.267147 -0.749525,1.145001 c -0.412236,0.629745 -0.782814,1.286685 -0.823508,1.45986 -0.04069,0.173173 0.296598,0.85611 0.749524,1.517634 l 0.823509,1.202767 0.07028,-1.395485 c 0.03866,-0.76751 0.03866,-1.965696 0,-2.66263 z m -37.37459721,2.742296 c 0.39444,-0.540647 0.717164,-1.098455 0.717164,-1.239569 0,-0.334035 -1.432522,-2.215154 -1.686896,-2.215154 -0.107469,0 -0.195401,0.998487 -0.195401,2.218859 0,1.256665 0.09713,2.218857 0.223984,2.218857 0.123192,0 0.546709,-0.442347 0.941149,-0.982993 z"
         id="path4489-6-7-1-2-5"
         inkscape:connector-curvature="0"
         clip-path="url(#clipPath4550-0-8)" />
      <path
         transform="matrix(-0.97588294,0,0,0.97588294,79.427566,17.068975)"
         style="fill:#4d4d4d;fill-opacity:1;stroke-width:0.22848828"
         d="m 42.933124,-27.38206 c -2.626675,-0.667106 -5.314556,-2.497039 -6.939759,-4.724648 l -0.733432,-1.005289 -0.605358,0.761668 c -3.45288,4.344456 -7.260438,5.942927 -10.672197,4.480354 -1.342573,-0.57555 -3.574512,-2.52784 -4.785347,-4.185782 -0.480825,-0.65838 -0.894897,-1.197047 -0.920149,-1.197047 -0.02526,0 -0.653165,0.74765 -1.39535,1.661451 -2.384576,2.935953 -5.375135,4.563047 -7.8086352,4.248497 -2.200782,-0.284471 -4.745977,-2.08568 -6.448593,-4.563599 -0.424949,-0.618456 -0.842734,-1.124463 -0.928409,-1.124463 -0.08568,0 -0.490105,0.439027 -0.89872901,0.975617 -1.376194,1.807167 -3.65796599,3.337533 -6.16014599,4.131542 -1.918414,0.60877 -5.9395928,0.702822 -6.5230788,0.152567 -0.426851,-0.402538 -0.212779,-0.82201 0.419501,-0.82201 0.440397,0 0.456688,-0.206638 0.456688,-5.792772 0,-4.752032 -0.05668,-5.772266 -0.315446,-5.678619 -0.463661,0.167788 -0.95086,-0.191428 -0.791337,-0.583463 0.209883,-0.515797 2.1330298,-0.695608 4.4790308,-0.418788 3.389139,0.399907 6.554818,2.054147 8.44209599,4.411455 l 0.95745401,1.195912 0.759947,-1.060054 c 0.98962,-1.380416 3.053538,-3.204933 4.367338,-3.860751 1.567349,-0.782383 4.3484992,-0.744977 6.0212122,0.08099 1.404611,0.693581 3.705575,2.631648 4.649608,3.916301 l 0.651296,0.886289 1.361996,-1.616307 c 1.486555,-1.76413 3.666504,-3.299474 5.258852,-3.703825 3.129157,-0.794607 6.835133,0.87554 9.478721,4.271705 l 0.875225,1.12439 0.427887,-0.786539 c 0.709812,-1.304756 2.90729,-3.360883 4.386617,-4.104445 2.321271,-1.166757 5.759538,-1.662817 8.16421,-1.177901 0.875604,0.176572 1.005774,0.985359 0.176464,1.096429 l -0.529393,0.0709 v 5.960057 5.960053 l 0.529393,0.0709 c 0.29117,0.03899 0.5294,0.220678 0.5294,0.403735 0,0.81389 -3.584224,1.143174 -5.937577,0.545484 z m 3.937634,-6.980174 v -6.212806 h -1.058793 -1.058789 v 6.212806 6.212805 h 1.058789 1.058793 z m -54.8218962,0.110943 v -5.87998 h -1.058792 -1.0587908 v 5.732057 c 0,3.152625 0.07059,5.798614 0.1568578,5.879971 0.08627,0.08136 0.562728,0.147928 1.058791,0.147928 h 0.901934 z m 19.0034042,0.05547 0.06279,-5.713566 H 9.9346538 8.7542468 v 5.781191 5.781188 l 1.117613,-0.06763 1.1176162,-0.06763 z m 16.940672,0 0.06279,-5.713566 h -1.1804 -1.180405 v 5.781191 5.781188 l 1.117613,-0.06763 1.117611,-0.06763 z m 15.819088,-0.166416 c 0,-5.775811 -0.01634,-5.990919 -0.455254,-5.990919 -0.250396,0 -0.726853,0.09738 -1.058794,0.216392 l -0.603534,0.216396 v 5.534149 5.534145 l 0.64704,0.222859 c 1.559333,0.53708 1.470542,0.88324 1.470542,-5.733022 z m -48.9985402,5.298261 c 0.527529,-0.183257 0.529395,-0.201497 0.529395,-5.17402 0,-5.519705 0.08789,-5.212472 -1.588187,-5.551824 l -0.764684,-0.154826 v 5.679948 5.679948 l 0.64704,-0.147661 c 0.355872,-0.08122 0.885268,-0.230417 1.176436,-0.331567 z m 12.999612,-5.076372 c 0,-3.696054 -0.07847,-5.325263 -0.256515,-5.325263 -0.141085,0 -0.66822,0.274583 -1.171412,0.610185 l -0.914897,0.610187 -0.005,4.030221 -0.0051,4.030223 0.9875,0.684856 c 0.543124,0.376665 1.07252,0.684851 1.176435,0.684851 0.103916,0 0.188936,-2.396369 0.188936,-5.32526 z m 16.9406712,0 c 0,-3.765112 -0.07678,-5.325263 -0.262075,-5.325263 -0.144138,0 -0.67353,0.218083 -1.176435,0.484629 l -0.914359,0.48463 v 4.173582 4.173583 l 0.976448,0.667051 c 0.537051,0.366879 1.066444,0.667048 1.176434,0.667048 0.109994,0 0.199987,-2.396369 0.199987,-5.32526 z m 6.058645,4.147784 c 0.509993,-0.436475 0.529395,-0.593428 0.529395,-4.282297 v -3.829216 l -0.64704,-0.42742 c -0.355873,-0.235087 -0.885267,-0.544943 -1.176434,-0.688574 l -0.529396,-0.261156 v 5.35859 5.358588 l 0.647041,-0.387714 c 0.355867,-0.213243 0.885268,-0.591601 1.176434,-0.840801 z m -17.398776,0.270736 0.9875,-0.684853 v -3.848698 -3.848698 l -0.647037,-0.42742 c -0.355876,-0.235087 -0.885269,-0.544943 -1.176436,-0.688574 l -0.5294,-0.261156 v 5.222128 c 0,2.87217 0.08502,5.222125 0.188936,5.222125 0.103916,0 0.633309,-0.308186 1.176437,-0.684854 z m 27.339656,-4.640406 c 0,-5.384914 -0.0073,-5.407225 -1.393668,-4.307055 l -0.723915,0.574444 v 3.625235 3.62524 l 0.877111,0.681816 c 0.482413,0.374993 0.958869,0.681807 1.058791,0.681807 0.09992,0 0.181681,-2.19667 0.181681,-4.881487 z m -42.5898802,0.02598 -0.0029,-3.465215 -0.817292,-0.499244 c -0.449531,-0.274584 -0.871737,-0.499246 -0.938258,-0.499246 -0.06652,0 -0.120943,2.048315 -0.120943,4.551812 v 4.55181 l 0.94115,-0.58735 0.941148,-0.587347 z m 23.2478222,-1.634655 -0.06913,-1.608673 -1.233885,1.529109 -1.233882,1.529106 0.511551,0.800695 c 0.281353,0.440379 0.8366,1.196823 1.233885,1.680983 l 0.722331,0.880287 0.06913,-1.601415 c 0.03803,-0.880784 0.03803,-2.325323 0,-3.210092 z m -16.8921572,1.692441 c 0,-3.142804 -0.05414,-3.188321 -1.414469,-1.189168 -0.64027,0.940946 -0.697804,1.14504 -0.448673,1.591616 0.405213,0.726363 1.629942,2.398291 1.756802,2.398291 0.05849,0 0.10634,-1.260331 0.10634,-2.800739 z m 12.8399502,0.08818 c 0.146159,-0.434286 -0.678389,-1.761157 -1.564216,-2.517159 -0.444276,-0.379169 -0.45253,-0.334299 -0.45253,2.461828 v 2.848036 l 0.937028,-1.184367 c 0.515369,-0.651402 1.001238,-1.375156 1.079718,-1.608341 z m 16.21739,1.35825 1.057206,-1.354315 -0.410648,-0.664479 c -0.225859,-0.36546 -0.750355,-1.029093 -1.165539,-1.474729 l -0.754891,-0.810253 -0.0098,2.829048 c -0.0054,1.55597 0.04337,2.829039 0.108337,2.829039 0.06497,0 0.593871,-0.609436 1.17533,-1.354307 z m 4.070786,-3.036633 -0.07028,-1.267147 -0.749525,1.145001 c -0.412236,0.629745 -0.782814,1.286685 -0.823508,1.45986 -0.04069,0.173173 0.296598,0.85611 0.749524,1.517634 l 0.823509,1.202767 0.07028,-1.395485 c 0.03866,-0.76751 0.03866,-1.965696 0,-2.66263 z m -37.37459721,2.742296 c 0.39444,-0.540647 0.717164,-1.098455 0.717164,-1.239569 0,-0.334035 -1.432522,-2.215154 -1.686896,-2.215154 -0.107469,0 -0.195401,0.998487 -0.195401,2.218859 0,1.256665 0.09713,2.218857 0.223984,2.218857 0.123192,0 0.546709,-0.442347 0.941149,-0.982993 z"
         id="path4489-6-7-1-2-9-4"
         inkscape:connector-curvature="0"
         clip-path="url(#clipPath4550-0-2-4)" />
      <rect
         style="opacity:1;vector-effect:none;fill:#4d4d4d;fill-opacity:1;stroke:none;stroke-width:0.33080101;stroke-linecap:butt;stroke-linejoin:miter;stroke-miterlimit:4;stroke-dasharray:none;stroke-dashoffset:0;stroke-opacity:1"
         id="rect4793"
         width="0.49718449"
         height="2.4919543"
         x="44.906528"
         y="-17.584784" />
    </g>
    <path
       inkscape:connector-curvature="0"
       id="path4489-3"
       d="m 51.066556,42.864617 c -2.600853,-0.66055 -5.262312,-2.472498 -6.871545,-4.678211 l -0.726219,-0.995407 -0.599411,0.754182 c -3.418936,4.301751 -7.189071,5.884511 -10.567293,4.436314 -1.329374,-0.569889 -3.539375,-2.502993 -4.73831,-4.144638 -0.4761,-0.651909 -0.886099,-1.185281 -0.911103,-1.185281 -0.02501,0 -0.646744,0.740304 -1.381637,1.645122 -2.361135,2.907092 -5.322301,4.518195 -7.731878,4.206734 -2.179151,-0.281672 -4.699325,-2.065175 -6.385204,-4.518737 -0.420773,-0.612381 -0.834451,-1.113414 -0.919285,-1.113414 -0.08483,0 -0.4852872,0.434714 -0.8898925,0.96603 -1.3626675,1.789401 -3.6220113,3.304723 -6.0995961,4.090931 -1.8995564,0.602783 -5.8812097,0.695911 -6.4589597,0.151064 -0.4226544,-0.398577 -0.2106875,-0.813929 0.4153762,-0.813929 0.43607,0 0.4521997,-0.204608 0.4521997,-5.735832 0,-4.705318 -0.056119,-5.715524 -0.3123453,-5.622798 -0.4591022,0.166138 -0.9415133,-0.189547 -0.7835586,-0.577729 0.207821,-0.510723 2.1120634,-0.688769 4.43500423,-0.41467 3.35582527,0.395975 6.49038787,2.033953 8.35911497,4.36809 l 0.9480421,1.184154 0.752477,-1.049627 c 0.979893,-1.366852 3.023521,-3.173432 4.324403,-3.822803 1.551947,-0.774694 4.305758,-0.737657 5.962029,0.0802 1.390806,0.686763 3.669154,2.605782 4.603907,3.877804 l 0.644894,0.877576 1.348608,-1.600417 c 1.471944,-1.746789 3.630465,-3.267038 5.207158,-3.667419 3.098405,-0.786796 6.767948,0.866936 9.38555,4.229716 l 0.866625,1.113336 0.423683,-0.778807 c 0.702833,-1.29193 2.878708,-3.327844 4.343497,-4.064097 2.298451,-1.155291 5.702926,-1.646474 8.083956,-1.166324 0.867001,0.174836 0.99589,0.975675 0.174737,1.085652 l -0.524191,0.07021 v 5.901467 5.901469 l 0.524191,0.0702 c 0.288298,0.03861 0.52419,0.218505 0.52419,0.399764 0,0.805888 -3.54899,1.131936 -5.879214,0.540125 z m 3.898934,-6.911566 v -6.151732 h -1.048386 -1.048383 v 6.151732 6.151735 h 1.048383 1.048386 z M 0.68246593,36.062903 v -5.822177 h -1.0483855 -1.04838473 v 5.675707 c 0,3.121638 0.069894,5.74162 0.1553167,5.82218 0.085428,0.08056 0.55719723,0.14647 1.04838463,0.14647 h 0.8930689 z m 18.81660607,0.05494 0.06217,-5.6574 h -1.168797 -1.168804 v 5.724361 5.724367 l 1.106626,-0.06697 1.10663,-0.06697 z m 16.774156,0 0.06218,-5.6574 h -1.168801 -1.168805 v 5.724361 5.724367 l 1.10663,-0.06697 1.106627,-0.06697 z m 15.663595,-0.164779 c 0,-5.719035 -0.01618,-5.932028 -0.450784,-5.932028 -0.24793,0 -0.719704,0.09642 -1.048383,0.214264 l -0.597605,0.214272 v 5.479749 5.479749 l 0.640682,0.220667 c 1.544004,0.531796 1.45609,0.874558 1.45609,-5.676673 z M 3.4199133,41.199239 c 0.5223456,-0.181455 0.5241922,-0.199515 0.5241922,-5.12316 0,-5.465448 0.087024,-5.161234 -1.5725768,-5.497249 L 1.6143632,30.425526 v 5.624113 5.624116 l 0.6406783,-0.146208 c 0.3523738,-0.08041 0.8765661,-0.228152 1.1648718,-0.328308 z M 16.291742,36.172765 c 0,-3.659727 -0.0777,-5.27292 -0.253992,-5.27292 -0.139701,0 -0.661654,0.271886 -1.1599,0.604189 l -0.905901,0.60419 -0.0051,3.990601 -0.0051,3.990609 0.977791,0.678123 c 0.537788,0.372968 1.061981,0.678119 1.164874,0.678119 0.102895,0 0.18708,-2.372814 0.18708,-5.272911 z m 16.774157,0 c 0,-3.728106 -0.07603,-5.27292 -0.259499,-5.27292 -0.142726,0 -0.666915,0.215941 -1.164875,0.479867 l -0.905372,0.479867 v 4.132557 4.132559 l 0.966853,0.660489 c 0.531769,0.363273 1.055959,0.660492 1.164873,0.660492 0.108912,0 0.19802,-2.372814 0.19802,-5.272911 z m 5.999093,4.107013 c 0.504977,-0.432188 0.524189,-0.587599 0.524189,-4.240208 v -3.791576 l -0.640678,-0.423216 c -0.352377,-0.232776 -0.876567,-0.539587 -1.164875,-0.681807 l -0.524192,-0.258586 v 5.305914 5.305918 l 0.640681,-0.383906 c 0.352375,-0.211145 0.876567,-0.585787 1.164875,-0.832533 z m -17.227759,0.268074 0.977792,-0.678121 V 36.05886 32.247994 l -0.640679,-0.423221 c -0.352377,-0.232776 -0.876565,-0.539587 -1.16487,-0.681807 L 20.485279,30.88438 v 5.170797 c 0,2.843933 0.08419,5.170789 0.187083,5.170789 0.102893,0 0.62708,-0.305152 1.164871,-0.678119 z m 27.070924,-4.594796 c 0,-5.331981 -0.0072,-5.354072 -1.37997,-4.264716 l -0.7168,0.568796 v 3.589603 3.589602 l 0.868487,0.675115 c 0.477674,0.371306 0.949449,0.675108 1.048385,0.675108 0.09894,0 0.179898,-2.175081 0.179898,-4.833508 z M 6.7369145,35.978773 6.7339884,32.547618 5.9247312,32.053284 C 5.4796377,31.781397 5.0615817,31.558945 4.9957149,31.558945 c -0.065868,0 -0.1197529,2.02818 -0.1197529,4.507066 v 4.507068 L 5.8078592,39.991503 6.7397566,39.40993 Z m 23.0193065,-1.618592 -0.06844,-1.592859 -1.221755,1.514079 -1.221755,1.514079 0.506523,0.792821 c 0.278588,0.436054 0.828378,1.18506 1.221757,1.66446 l 0.71523,0.871638 0.06844,-1.585678 c 0.03763,-0.872122 0.03763,-2.302462 0,-3.17854 z m -16.726116,1.675812 c 0,-3.11191 -0.0536,-3.15698 -1.400565,-1.177478 -0.633977,0.931699 -0.690946,1.133785 -0.444262,1.57597 0.40123,0.719224 1.613919,2.374721 1.739532,2.374721 0.05791,0 0.105295,-1.247943 0.105295,-2.773213 z m 12.713739,0.08731 c 0.144722,-0.430013 -0.67172,-1.743842 -1.54884,-2.492411 -0.439914,-0.375442 -0.448082,-0.331014 -0.448082,2.43763 v 2.820042 l 0.927817,-1.172733 c 0.5103,-0.645002 0.991396,-1.361643 1.069105,-1.592535 z m 16.057981,1.344904 1.046812,-1.341003 -0.406613,-0.657947 C 42.21839,35.107374 41.69905,34.450267 41.287946,34.00901 l -0.747476,-0.802288 -0.0097,2.801239 c -0.0054,1.540678 0.04293,2.801233 0.107272,2.801233 0.06433,0 0.588033,-0.603449 1.163778,-1.340998 z m 4.030773,-3.006784 -0.06961,-1.254691 -0.742158,1.133744 c -0.408183,0.623556 -0.775118,1.274039 -0.815409,1.445514 -0.0403,0.171472 0.293682,0.847691 0.742157,1.502714 l 0.81541,1.190947 0.06961,-1.381767 c 0.03828,-0.75997 0.03828,-1.946378 0,-2.636461 z M 8.8253758,37.176758 c 0.3905637,-0.535331 0.7101146,-1.087657 0.7101146,-1.227385 0,-0.330748 -1.4184416,-2.193378 -1.670314,-2.193378 -0.1064137,0 -0.1934808,0.988672 -0.1934808,2.197046 0,1.244314 0.096179,2.197049 0.221782,2.197049 0.1219812,0 0.5413356,-0.437999 0.9318982,-0.973332 z"
       style="fill:#4d4d4d;fill-opacity:1;stroke-width:0.22624236" />
    <path
       inkscape:connector-curvature="0"
       id="path4489-6-3-4"
       d="m 2.6500453,16.26247 c 2.6008542,-0.660547 5.2623166,-2.472495 6.8715456,-4.678209 l 0.7262181,-0.995406 0.599412,0.754179 c 3.418941,4.301753 7.18907,5.884513 10.567292,4.436313 1.32938,-0.569887 3.539382,-2.502989 4.738313,-4.144636 0.476098,-0.651907 0.886097,-1.185281 0.911104,-1.185281 0.02501,0 0.646741,0.740303 1.381634,1.645123 2.361138,2.907092 5.322301,4.518194 7.73188,4.206737 2.179152,-0.281676 4.699329,-2.06518 6.385208,-4.518742 0.420773,-0.612377 0.834452,-1.113412 0.919284,-1.113412 0.08484,0 0.485287,0.434713 0.889895,0.96603 1.362667,1.7894 3.622009,3.304723 6.099595,4.090931 1.899556,0.602786 5.881209,0.695911 6.45896,0.151066 0.422655,-0.39858 0.210687,-0.813932 -0.415377,-0.813932 -0.436069,0 -0.452199,-0.204605 -0.452199,-5.735829 0,-4.7053214 0.05612,-5.7155287 0.312345,-5.6228015 0.459102,0.1661394 0.941513,-0.189546 0.783559,-0.5777281 C 56.950893,2.6161465 55.04665,2.4381023 52.723709,2.7122008 49.367884,3.1081769 46.233321,4.7461584 44.364595,7.0802931 L 43.416552,8.2644491 42.664075,7.2148167 C 41.684183,5.8479692 39.640549,4.0413859 38.339665,3.3920145 36.787723,2.6173219 34.033907,2.6543596 32.377638,3.4722133 30.986833,4.1589768 28.708486,6.0779932 27.773733,7.3500166 L 27.128839,8.2275957 25.780231,6.6271744 C 24.308289,4.8803874 22.149765,3.3601365 20.573069,2.959759 17.474666,2.1729622 13.805122,3.8266919 11.187521,7.1894742 L 10.320899,8.3028121 9.8972172,7.5240058 C 9.1943826,6.232074 7.0185031,4.1961582 5.5537191,3.4599046 3.2552633,2.3046154 -0.14920707,1.8134324 -2.530245,2.2935824 -3.3972467,2.468418 -3.5261348,3.2692549 -2.7049713,3.3792339 l 0.524191,0.070206 v 5.9014711 5.901468 l -0.524191,0.07021 c -0.2883087,0.03861 -0.5242001,0.218507 -0.5242001,0.399767 0,0.805886 3.54899733,1.131936 5.8792167,0.540121 z M -1.2488815,9.350907 V 3.1991708 h 1.04838413 1.048383 v 6.1517362 6.151735 h -1.048383 -1.04838413 z M 53.034143,9.46076 V 3.6385785 h 1.048385 1.048384 v 5.6757116 c 0,3.1216369 -0.06989,5.7416199 -0.155316,5.8221769 -0.08541,0.08056 -0.557197,0.14647 -1.048385,0.14647 H 53.034143 Z M 34.217531,9.51569 34.155351,3.8582877 h 1.168805 1.168804 v 5.7243643 5.724361 l -1.106631,-0.06697 -1.106629,-0.06697 z m -16.774154,0 -0.06218,-5.6574023 h 1.168806 1.168801 v 5.7243643 5.724361 l -1.106626,-0.06697 -1.106627,-0.06697 z M 1.7797835,9.350903 c 0,-5.7190352 0.01618,-5.9320293 0.4507799,-5.9320293 0.2479349,0 0.7197045,0.096419 1.0483849,0.2142647 L 3.8765515,3.8474083 V 9.327158 14.806906 L 3.2358702,15.027575 C 1.6918645,15.559373 1.7797835,15.902131 1.7797835,9.350903 Z M 50.296694,14.597086 C 49.77435,14.415632 49.772502,14.39757 49.772502,9.473922 c 0,-5.4654458 -0.08702,-5.161233 1.572578,-5.497249 L 52.102246,3.8233679 V 9.447484 15.071599 L 51.461567,14.925392 C 51.109192,14.844981 50.585,14.697241 50.296694,14.597086 Z M 37.424864,9.570609 c 0,-3.6597241 0.0777,-5.272918 0.25399,-5.272918 0.139699,0 0.661656,0.2718852 1.1599,0.6041874 l 0.905903,0.6041903 0.0051,3.9906053 0.0051,3.990608 -0.977795,0.678122 c -0.537786,0.372965 -1.061976,0.678119 -1.16487,0.678119 -0.102894,0 -0.187078,-2.372813 -0.187078,-5.272914 z m -16.774157,0 c 0,-3.7281042 0.07603,-5.272918 0.259498,-5.272918 0.142721,0 0.666912,0.2159405 1.164871,0.4798665 l 0.905372,0.4798676 v 4.1325559 4.132558 l -0.96685,0.660495 c -0.531771,0.36327 -1.055962,0.660489 -1.164871,0.660489 -0.108912,0 -0.19802,-2.372813 -0.19802,-5.272914 z m -5.999093,4.107016 c -0.504978,-0.432189 -0.52419,-0.587597 -0.52419,-4.240207 V 5.645841 L 14.768103,5.222624 C 15.12048,4.989849 15.64467,4.6830382 15.932972,4.5408187 L 16.457166,4.2822294 V 9.588146 14.894061 L 15.816485,14.510158 C 15.464115,14.299012 14.93992,13.924373 14.651614,13.677625 Z M 31.87937,13.945699 30.901578,13.267576 V 9.456707 5.645841 l 0.640681,-0.423217 c 0.352374,-0.232775 0.876562,-0.5395858 1.16487,-0.6818053 L 33.231323,4.2822294 V 9.453027 c 0,2.843935 -0.08419,5.170791 -0.187079,5.170791 -0.102895,0 -0.627083,-0.305154 -1.164874,-0.678119 z M 4.8084503,9.350903 c 0,-5.331981 0.00719,-5.3540714 1.3799683,-4.2647162 l 0.7167998,0.5687959 v 3.589602 3.5896063 l -0.8684911,0.675111 c -0.4776724,0.371309 -0.9494421,0.675107 -1.048382,0.675107 -0.09894,0 -0.179895,-2.175078 -0.179895,-4.833506 z m 42.1712447,0.02573 0.0029,-3.4311549 0.809258,-0.4943329 c 0.445091,-0.2718852 0.863149,-0.4943369 0.929015,-0.4943369 0.06587,0 0.119753,2.0281784 0.119753,4.5070657 v 4.50707 l -0.931909,-0.58158 -0.931896,-0.581573 z m -23.019314,-1.6185879 0.06844,-1.5928612 1.221757,1.5140799 1.221753,1.5140757 -0.506522,0.7928245 c -0.278589,0.436053 -0.828378,1.185059 -1.221757,1.664459 l -0.715231,0.871636 -0.06844,-1.585675 c -0.03763,-0.872124 -0.03763,-2.3024644 0,-3.1785389 z m 16.72612,1.6758109 c 0,-3.1119133 0.0536,-3.156981 1.400566,-1.1774797 0.633978,0.9316983 0.690946,1.1337847 0.444263,1.5759707 -0.40123,0.719222 -1.61392,2.374719 -1.739533,2.374719 -0.05791,0 -0.105296,-1.247943 -0.105296,-2.77321 z m -12.713742,0.08732 c -0.144719,-0.4300131 0.67172,-1.7438399 1.548838,-2.4924124 0.439914,-0.37544 0.448087,-0.3310112 0.448087,2.4376304 v 2.820041 L 29.041866,11.11371 C 28.531563,10.46871 28.05047,9.752069 27.972759,9.521176 Z m -16.057981,1.3449 -1.046812,-1.341 0.406612,-0.6579473 c 0.223637,-0.3618733 0.742974,-1.0189801 1.15408,-1.4602366 l 0.747472,-0.8022888 0.0097,2.8012377 c 0.0054,1.540678 -0.04294,2.801234 -0.107276,2.801234 -0.06431,0 -0.58803,-0.603448 -1.163778,-1.340998 z M 7.8840043,7.8592877 7.9536125,6.604596 8.6957689,7.7383395 C 9.1039537,8.3618976 9.4708888,9.0123787 9.5111836,9.1838519 9.5514606,9.355324 9.2175006,10.031548 8.7690252,10.686567 l -0.8154127,1.190947 -0.069608,-1.381768 c -0.038282,-0.759969 -0.038282,-1.9463759 -2e-7,-2.6364583 z M 44.891233,10.57462 c -0.390564,-0.535332 -0.710115,-1.087657 -0.710115,-1.227386 0,-0.3307466 1.418441,-2.1933769 1.670315,-2.1933769 0.106412,0 0.19348,0.9886698 0.19348,2.1970479 0,1.244313 -0.09618,2.197047 -0.221782,2.197047 -0.121981,0 -0.541335,-0.438 -0.931898,-0.973332 z"
       style="fill:#4d4d4d;fill-opacity:1;stroke-width:0.22624236" />
    <rect
       y="-8.6314182"
       x="50.623966"
       height="57.526043"
       width="19.736675"
       id="rect4632-3"
       style="opacity:1;vector-effect:none;fill:#ffffff;fill-opacity:1;stroke:none;stroke-width:2.44801426;stroke-linecap:butt;stroke-linejoin:miter;stroke-miterlimit:4;stroke-dasharray:none;stroke-dashoffset:0;stroke-opacity:1" />
    <rect
       y="-6.921133"
       x="-12.782926"
       height="55.483757"
       width="12.717442"
       id="rect4632-6-9"
       style="opacity:1;vector-effect:none;fill:#ffffff;fill-opacity:1;stroke:none;stroke-width:1.92986715;stroke-linecap:butt;stroke-linejoin:miter;stroke-miterlimit:4;stroke-dasharray:none;stroke-dashoffset:0;stroke-opacity:1" />
    <rect
       inkscape:export-ydpi="900.90002"
       inkscape:export-xdpi="900.90002"
       y="0.89999998"
       x="0.89999998"
       height="43.73175"
       width="48.848026"
       id="rect4542-3-8-1"
       style="opacity:1;vector-effect:none;fill:none;fill-opacity:0.17587938;stroke:#4d4d4d;stroke-width:1.79999995;stroke-linecap:butt;stroke-linejoin:miter;stroke-miterlimit:4;stroke-dasharray:none;stroke-dashoffset:0;stroke-opacity:1" />
  </g>
</svg>
