<?xml version="1.0" encoding="UTF-8" standalone="no"?>
<!-- Created with Inkscape (http://www.inkscape.org/) -->

<svg
   xmlns:dc="http://purl.org/dc/elements/1.1/"
   xmlns:cc="http://creativecommons.org/ns#"
   xmlns:rdf="http://www.w3.org/1999/02/22-rdf-syntax-ns#"
   xmlns:svg="http://www.w3.org/2000/svg"
   xmlns="http://www.w3.org/2000/svg"
   xmlns:sodipodi="http://sodipodi.sourceforge.net/DTD/sodipodi-0.dtd"
   xmlns:inkscape="http://www.inkscape.org/namespaces/inkscape"
   width="314mm"
   height="188mm"
   viewBox="0 0 314 187.99999"
   version="1.1"
   id="svg8"
   inkscape:version="0.92.3 (unknown)"
   sodipodi:docname="huri_image2.svg">
  <defs
     id="defs2" />
  <sodipodi:namedview
     id="base"
     pagecolor="#ffffff"
     bordercolor="#666666"
     borderopacity="1.0"
     inkscape:pageopacity="0.0"
     inkscape:pageshadow="2"
     inkscape:zoom="0.35"
     inkscape:cx="198.10332"
     inkscape:cy="345.1183"
     inkscape:document-units="mm"
     inkscape:current-layer="layer1"
     showgrid="false"
     fit-margin-top="0"
     fit-margin-left="0"
     fit-margin-right="0"
     fit-margin-bottom="0"
     inkscape:window-width="1357"
     inkscape:window-height="895"
     inkscape:window-x="1985"
     inkscape:window-y="68"
     inkscape:window-maximized="0" />
  <metadata
     id="metadata5">
    <rdf:RDF>
      <cc:Work
         rdf:about="">
        <dc:format>image/svg+xml</dc:format>
        <dc:type
           rdf:resource="http://purl.org/dc/dcmitype/StillImage" />
        <dc:title></dc:title>
      </cc:Work>
    </rdf:RDF>
  </metadata>
  <g
     inkscape:label="Layer 1"
     inkscape:groupmode="layer"
     id="layer1"
     transform="translate(-11.631232,15.19795)">
    <path
       class="parent"
       d="m 223.46017,76.023772 c 0,33.247428 -27.19711,60.197578 -60.74499,60.197578 -33.54933,0 -60.74498,-26.95231 -60.74498,-60.197578 0,-33.247396 27.1971,-60.197543 60.74498,-60.197543 33.54933,0 60.74499,26.952291 60.74499,60.197543 z"
       id="path2987"
       inkscape:connector-curvature="0"
       style="fill:#f5f5f5;fill-opacity:1;stroke:none;stroke-width:0.15549321;stroke-miterlimit:4;stroke-dasharray:none;stroke-opacity:0.56084655" />
    <path
       class="child"
       d="m 161.06549,98.304002 c 0,10.755458 -8.79849,19.474508 -19.65129,19.474508 -10.85317,0 -19.6513,-8.71905 -19.6513,-19.474508 0,-10.755486 8.79849,-19.474529 19.6513,-19.474529 10.85317,0 19.65129,8.719043 19.65129,19.474529 z"
       id="path2991-1"
       inkscape:connector-curvature="0"
       style="fill:#eeeeee;stroke:none;stroke-width:0.2979407;stroke-miterlimit:4;stroke-dasharray:none;fill-opacity:1" />
    <path
       class="child"
       d="m 202.87706,60.77847 c 0,10.755486 -8.79849,19.474528 -19.6513,19.474528 -10.85315,0 -19.65128,-8.719042 -19.65128,-19.474528 0,-10.755462 8.79848,-19.474504 19.65128,-19.474504 10.85317,0 19.6513,8.719042 19.6513,19.474504 z"
       id="path2991-7"
       inkscape:connector-curvature="0"
       style="fill:#eeeeee;fill-opacity:1;stroke:none;stroke-width:0.2979407;stroke-miterlimit:4;stroke-dasharray:none;stroke-opacity:1" />
    <path
       class="child"
       d="m 317.37103,153.32752 c 0,10.75546 -8.79848,19.47453 -19.65129,19.47453 -10.85318,0 -19.65131,-8.71907 -19.65131,-19.47453 0,-10.75546 8.79851,-19.47451 19.65131,-19.47451 10.85317,0 19.65129,8.71905 19.65129,19.47451 z"
       id="path2991-4"
       inkscape:connector-curvature="0"
       style="fill:#eeeeee;fill-opacity:1;stroke:none;stroke-width:0.2979407;stroke-miterlimit:4;stroke-dasharray:none;stroke-opacity:1" />
    <path
       class="child"
       d="m 50.933822,153.05466 c 0,10.75546 -8.798486,19.47451 -19.651293,19.47451 -10.853172,0 -19.651297,-8.71905 -19.651297,-19.47451 0,-10.75546 8.798487,-19.47453 19.651297,-19.47453 10.853171,0 19.651293,8.71907 19.651293,19.47453 z"
       id="path2991-0"
       inkscape:connector-curvature="0"
       style="fill:#eeeeee;fill-opacity:1;stroke:none;stroke-width:0.2979407;stroke-miterlimit:4;stroke-dasharray:none" />
    <path
       class="child"
       d="M 141.42507,98.447784 31.963231,153.55697"
       id="path3807"
       inkscape:connector-curvature="0"
       style="fill:#eeeeee;stroke:#eeeeee;stroke-width:3.88733053;stroke-linecap:butt;stroke-linejoin:miter;stroke-miterlimit:4;stroke-dasharray:none;stroke-opacity:1;fill-opacity:1"
       sodipodi:nodetypes="cc" />
    <path
       class="child"
       d="m 325.63123,4.2765558 c 0,10.7554862 -8.79848,19.4745282 -19.6513,19.4745282 -10.85317,0 -19.65129,-8.719042 -19.65129,-19.4745282 0,-10.7554588 8.79847,-19.4745058 19.65129,-19.4745058 10.85317,0 19.6513,8.719047 19.6513,19.4745058 z"
       id="path2991-9-45"
       inkscape:connector-curvature="0"
       style="fill:#eeeeee;fill-opacity:1;stroke:none;stroke-width:0.2979407;stroke-miterlimit:4;stroke-dasharray:none" />
    <path
       class="child"
       d="M 306.35842,4.5124212 184.36062,59.750743"
       id="path3807-1"
       inkscape:connector-curvature="0"
       style="fill:none;stroke:#eeeeee;stroke-width:3.88733053;stroke-linecap:butt;stroke-linejoin:miter;stroke-miterlimit:4;stroke-dasharray:none;stroke-opacity:1"
       sodipodi:nodetypes="cc" />
    <path
       class="child"
       d="M 297.96545,155.05783 184.35338,59.732413"
       id="path3807-1-5"
       inkscape:connector-curvature="0"
       style="fill:none;stroke:#eeeeee;stroke-width:3.88733053;stroke-linecap:butt;stroke-linejoin:miter;stroke-miterlimit:4;stroke-dasharray:none;stroke-opacity:1"
       sodipodi:nodetypes="cc" />
  </g>
</svg>
