<?xml version="1.0" encoding="UTF-8" standalone="no"?>
<!-- Created with Inkscape (http://www.inkscape.org/) -->
<svg id="svg2" xmlns:rdf="http://www.w3.org/1999/02/22-rdf-syntax-ns#" xmlns="http://www.w3.org/2000/svg" height="40.026" width="69.124" version="1.1" xmlns:cc="http://creativecommons.org/ns#" xmlns:dc="http://purl.org/dc/elements/1.1/">
 <metadata id="metadata7">
  <rdf:RDF>
   <cc:Work rdf:about="">
    <dc:format>image/svg+xml</dc:format>
    <dc:type rdf:resource="http://purl.org/dc/dcmitype/StillImage"/>
    <dc:title/>
   </cc:Work>
  </rdf:RDF>
 </metadata>
 <g id="g3770" stroke-miterlimit="4" stroke-dasharray="none">
  <path id="path2987" d="m48.576,17.582c0,9.2489-7.5012,16.746-16.754,16.746-9.2532,0-16.754-7.4977-16.754-16.746,0-9.2489,7.5012-16.746,16.754-16.746,9.2532,0,16.754,7.4977,16.754,16.746z" stroke-opacity="0.56084655000000005" class="parent" stroke="#000000" stroke-width="0.04307067000000000" fill="#e6e6e6"/>
  <path id="path2991-1" d="m31.367,23.78c0,2.992-2.4267,5.4175-5.42,5.4175-2.9934,0-5.42-2.4255-5.42-5.4175s2.4267-5.4175,5.42-5.4175c2.9934,0,5.42,2.4255,5.42,5.4175z" class="child" stroke="#5cb85c" stroke-width="0.08252774" fill="#5cb85c"/>
  <path id="path2991-7" d="m42.899,13.341c0,2.992-2.4267,5.4175-5.42,5.4175-2.9934,0-5.42-2.4255-5.42-5.4175s2.4267-5.4175,5.42-5.4175c2.9934,0,5.42,2.4255,5.42,5.4175z" class="child" stroke="#5cb85c" stroke-width="0.08252774" fill="#5cb85c"/>
  <path id="path2991-4" d="m67.986,29.163c0,2.992-2.4267,5.4175-5.42,5.4175-2.9934,0-5.42-2.4255-5.42-5.4175s2.4267-5.4175,5.42-5.4175c2.9934,0,5.42,2.4255,5.42,5.4175z" class="child" stroke="#5cb85c" stroke-width="0.08252774" fill="#5cb85c"/>
  <path id="path2991-0" d="m10.903,34.545c0,2.992-2.4267,5.4175-5.42,5.4175-2.9934,0-5.42-2.4255-5.42-5.4175s2.4267-5.4175,5.42-5.4175c2.9934,0,5.42,2.4255,5.42,5.4175z" class="child" stroke="#5cb85c" stroke-width="0.08252774" fill="#5cb85c"/>
  <path id="path3807" stroke-linejoin="miter" d="m25.95,23.82-20.47,10.76" class="child" stroke="#5cb85c" stroke-linecap="butt" stroke-width="1.07676673" fill="none"/>
  <path id="path2991-9-45" d="m69.063,5.4793c0,2.992-2.4267,5.4175-5.42,5.4175-2.9934,0-5.42-2.4255-5.42-5.4175s2.4267-5.4175,5.42-5.4175c2.9934,0,5.42,2.4255,5.42,5.4175z" class="child" stroke="#5cb85c" stroke-width="0.08252774" fill="#5cb85c"/>
  <path id="path3807-1" stroke-linejoin="miter" d="m63.64,5.5195-25.848,7.5356" class="child" stroke="#5cb85c" stroke-linecap="butt" stroke-width="1.07676673" fill="none"/>
  <path id="path3807-1-5" stroke-linejoin="miter" d="m62.56,29.2-24.77-16.15" class="child" stroke="#5cb85c" stroke-linecap="butt" stroke-width="1.07676673" fill="none"/>
 </g>
</svg>
